%
M48
M72
T01C0.01400
T02C0.02756
T03C0.03200
T04C0.04000
T05C0.05118
T06C0.05906
T07C0.12598
%
T01
X170119Y95906
X177119Y106906
X167119Y108906
X160119Y111906
X132119Y126906
X138119Y131906
X149119Y129906
X159119Y134906
X189119Y124906
X198119Y112906
X214119Y132906
X259119Y138906
X265119Y134906
X283119Y132906
X314119Y149906
X328119Y158906
X340119Y158906
X329119Y140906
X288119Y111906
X279119Y107906
X285119Y99906
X296119Y103906
X313119Y99906
X334119Y103906
X318119Y49906
X280119Y45906
X305119Y27906
X239119Y43906
X200119Y65906
X196119Y85906
X198119Y91906
X118119Y103906
X102119Y130906
X235119Y197906
X259119Y199906
X266119Y195906
X260119Y190906
X260119Y181906
X262119Y208906
X309119Y177906
X362119Y203906
T02
X341079Y69583
X321079Y69583
T03
X323709Y90205
X333709Y90205
X343709Y90205
X353709Y90205
X363709Y90205
X363709Y120205
X353709Y120205
X343709Y120205
X333709Y120205
X323709Y120205
X313709Y120205
X303709Y120205
X293709Y120205
X283709Y120205
X273709Y120205
X263709Y120205
X253709Y120205
X243709Y120205
X233709Y120205
X233709Y90205
X243709Y90205
X253709Y90205
X263709Y90205
X273709Y90205
X283709Y90205
X293709Y90205
X303709Y90205
X313709Y90205
T04
X369201Y37811
X370201Y27811
X369201Y17811
X340040Y22260
X330040Y22260
X320040Y22260
X320040Y32260
X330040Y32260
X340040Y32260
X274615Y32339
X264615Y32339
X254615Y32339
X244615Y32339
X234615Y32339
X234615Y22339
X244615Y22339
X254615Y22339
X264615Y22339
X274615Y22339
X191583Y148717
X181583Y148717
X171583Y148717
X161583Y148717
X151583Y148717
X141583Y148717
X131583Y148717
X121583Y148717
X121268Y167496
X131268Y167496
X141268Y167496
X151268Y167496
X161268Y167496
X171268Y167496
X181268Y167496
X191268Y167496
X201268Y167496
X211268Y167496
X221268Y167496
X231268Y167496
X241268Y167496
X251268Y167496
X261268Y167496
X271268Y167496
X138111Y199374
X128111Y199374
X118111Y199374
T05
X288292Y174417
X367032Y174417
T06
X88741Y23984
X184016Y23984
T07
X385048Y45449
X385048Y167496
X89772Y167496
M30
