G75*
%MOIN*%
%OFA0B0*%
%FSLAX25Y25*%
%IPPOS*%
%LPD*%
%AMOC8*
5,1,8,0,0,1.08239X$1,22.5*
%
%ADD10R,0.06299X0.07087*%
%ADD11R,0.07087X0.06299*%
%ADD12R,0.08000X0.02600*%
%ADD13R,0.02362X0.04724*%
%ADD14R,0.03543X0.03150*%
%ADD15R,0.02200X0.05000*%
%ADD16R,0.09843X0.03937*%
%ADD17R,0.23622X0.09843*%
D10*
X0104977Y0079260D03*
X0116000Y0079260D03*
X0120197Y0134496D03*
X0109174Y0134496D03*
X0284851Y0067063D03*
X0295874Y0067063D03*
X0333977Y0173126D03*
X0345000Y0173126D03*
D11*
X0276654Y0196937D03*
X0276654Y0207961D03*
X0246292Y0150205D03*
X0231032Y0150843D03*
X0231032Y0139819D03*
X0246292Y0139181D03*
X0135520Y0059094D03*
X0135520Y0048071D03*
D12*
X0324688Y0187370D03*
X0324688Y0192370D03*
X0324688Y0197370D03*
X0324688Y0202370D03*
X0348888Y0202370D03*
X0348888Y0197370D03*
X0348888Y0192370D03*
X0348888Y0187370D03*
D13*
X0253256Y0183323D03*
X0248256Y0183323D03*
X0243256Y0183323D03*
X0238256Y0183323D03*
X0233256Y0183323D03*
X0228256Y0183323D03*
X0223256Y0183323D03*
X0218256Y0183323D03*
X0218256Y0205370D03*
X0223256Y0205370D03*
X0228256Y0205370D03*
X0233256Y0205370D03*
X0238256Y0205370D03*
X0243256Y0205370D03*
X0248256Y0205370D03*
X0253256Y0205370D03*
X0176760Y0101787D03*
X0171760Y0101787D03*
X0166760Y0101787D03*
X0161760Y0101787D03*
X0156760Y0101787D03*
X0151760Y0101787D03*
X0146760Y0101787D03*
X0141760Y0101787D03*
X0141760Y0079740D03*
X0146760Y0079740D03*
X0151760Y0079740D03*
X0156760Y0079740D03*
X0161760Y0079740D03*
X0166760Y0079740D03*
X0171760Y0079740D03*
X0176760Y0079740D03*
D14*
X0304276Y0196094D03*
X0296008Y0199835D03*
X0304276Y0203575D03*
D15*
X0106891Y0058754D03*
X0114291Y0058754D03*
X0110591Y0050554D03*
D16*
X0362087Y0184409D03*
X0362087Y0194409D03*
D17*
X0382087Y0189409D03*
M02*
