G75*
%MOIN*%
%OFA0B0*%
%FSLAX25Y25*%
%IPPOS*%
%LPD*%
%AMOC8*
5,1,8,0,0,1.08239X$1,22.5*
%
%ADD10C,0.07677*%
%ADD11R,0.07087X0.06299*%
%ADD12R,0.06299X0.07087*%
%ADD13C,0.07400*%
%ADD14OC8,0.07400*%
%ADD15R,0.07400X0.07400*%
%ADD16R,0.03000X0.06000*%
%ADD17C,0.05200*%
%ADD18R,0.03150X0.07874*%
%ADD19R,0.07874X0.03150*%
%ADD20R,0.11811X0.11811*%
%ADD21C,0.06500*%
%ADD22C,0.01600*%
%ADD23C,0.01200*%
%ADD24C,0.01000*%
%ADD25OC8,0.03000*%
D10*
X0288292Y0174417D03*
X0367032Y0174417D03*
D11*
X0309402Y0068559D03*
X0309402Y0057535D03*
D12*
X0354434Y0069961D03*
X0365457Y0069961D03*
X0252623Y0071150D03*
X0241599Y0071150D03*
X0218158Y0144520D03*
X0207134Y0144520D03*
D13*
X0191583Y0148717D03*
X0181583Y0148717D03*
X0171583Y0148717D03*
X0161583Y0148717D03*
X0151583Y0148717D03*
X0141583Y0148717D03*
X0131583Y0148717D03*
X0121583Y0148717D03*
X0121268Y0167496D03*
X0131268Y0167496D03*
X0141268Y0167496D03*
X0151268Y0167496D03*
X0161268Y0167496D03*
X0171268Y0167496D03*
X0181268Y0167496D03*
X0191268Y0167496D03*
X0201268Y0167496D03*
X0211268Y0167496D03*
X0221268Y0167496D03*
X0231268Y0167496D03*
X0241268Y0167496D03*
X0251268Y0167496D03*
X0261268Y0167496D03*
X0271268Y0167496D03*
X0128111Y0199374D03*
X0118111Y0199374D03*
X0369201Y0037811D03*
X0370201Y0027811D03*
X0369201Y0017811D03*
D14*
X0340040Y0022260D03*
X0330040Y0022260D03*
X0320040Y0022260D03*
X0320040Y0032260D03*
X0330040Y0032260D03*
X0340040Y0032260D03*
X0274615Y0032339D03*
X0264615Y0032339D03*
X0254615Y0032339D03*
X0244615Y0032339D03*
X0234615Y0032339D03*
X0234615Y0022339D03*
X0244615Y0022339D03*
X0254615Y0022339D03*
X0264615Y0022339D03*
X0274615Y0022339D03*
D15*
X0138111Y0199374D03*
D16*
X0208280Y0076732D03*
X0223280Y0076732D03*
X0223280Y0054732D03*
X0208280Y0054732D03*
D17*
X0233709Y0087605D02*
X0233709Y0092805D01*
X0243709Y0092805D02*
X0243709Y0087605D01*
X0253709Y0087605D02*
X0253709Y0092805D01*
X0263709Y0092805D02*
X0263709Y0087605D01*
X0273709Y0087605D02*
X0273709Y0092805D01*
X0283709Y0092805D02*
X0283709Y0087605D01*
X0293709Y0087605D02*
X0293709Y0092805D01*
X0303709Y0092805D02*
X0303709Y0087605D01*
X0313709Y0087605D02*
X0313709Y0092805D01*
X0323709Y0092805D02*
X0323709Y0087605D01*
X0333709Y0087605D02*
X0333709Y0092805D01*
X0343709Y0092805D02*
X0343709Y0087605D01*
X0353709Y0087605D02*
X0353709Y0092805D01*
X0363709Y0092805D02*
X0363709Y0087605D01*
X0363709Y0117605D02*
X0363709Y0122805D01*
X0353709Y0122805D02*
X0353709Y0117605D01*
X0343709Y0117605D02*
X0343709Y0122805D01*
X0333709Y0122805D02*
X0333709Y0117605D01*
X0323709Y0117605D02*
X0323709Y0122805D01*
X0313709Y0122805D02*
X0313709Y0117605D01*
X0303709Y0117605D02*
X0303709Y0122805D01*
X0293709Y0122805D02*
X0293709Y0117605D01*
X0283709Y0117605D02*
X0283709Y0122805D01*
X0273709Y0122805D02*
X0273709Y0117605D01*
X0263709Y0117605D02*
X0263709Y0122805D01*
X0253709Y0122805D02*
X0253709Y0117605D01*
X0243709Y0117605D02*
X0243709Y0122805D01*
X0233709Y0122805D02*
X0233709Y0117605D01*
D18*
X0182638Y0120441D03*
X0174764Y0120441D03*
X0168071Y0120441D03*
X0158504Y0120441D03*
X0148662Y0120441D03*
X0138819Y0120441D03*
X0132126Y0120441D03*
X0119134Y0120441D03*
X0109292Y0120441D03*
X0099449Y0120441D03*
D19*
X0192874Y0077331D03*
X0192874Y0037764D03*
D20*
X0194843Y0053512D03*
X0194843Y0104693D03*
X0073386Y0104693D03*
X0073386Y0053512D03*
D21*
X0321079Y0069583D03*
X0341079Y0069583D03*
D22*
X0071742Y0045806D02*
X0071745Y0005800D01*
X0392870Y0005800D01*
X0392870Y0037574D01*
X0391863Y0036567D01*
X0389332Y0035106D01*
X0386509Y0034350D01*
X0383586Y0034350D01*
X0380764Y0035106D01*
X0378233Y0036567D01*
X0376166Y0038634D01*
X0374705Y0041165D01*
X0373949Y0043988D01*
X0373949Y0046910D01*
X0374705Y0049733D01*
X0376166Y0052264D01*
X0378233Y0054330D01*
X0380764Y0055792D01*
X0383586Y0056548D01*
X0386509Y0056548D01*
X0389332Y0055792D01*
X0391863Y0054330D01*
X0392870Y0053323D01*
X0392870Y0159621D01*
X0391863Y0158614D01*
X0389332Y0157153D01*
X0386509Y0156397D01*
X0383586Y0156397D01*
X0380764Y0157153D01*
X0378233Y0158614D01*
X0376166Y0160681D01*
X0374705Y0163212D01*
X0373949Y0166035D01*
X0373949Y0168957D01*
X0374705Y0171780D01*
X0376166Y0174311D01*
X0378233Y0176378D01*
X0380764Y0177839D01*
X0383586Y0178595D01*
X0386509Y0178595D01*
X0389332Y0177839D01*
X0391863Y0176378D01*
X0392870Y0175371D01*
X0392870Y0214830D01*
X0071730Y0214814D01*
X0071737Y0112398D01*
X0080037Y0112398D01*
X0081092Y0111344D01*
X0081092Y0098042D01*
X0080037Y0096987D01*
X0071738Y0096987D01*
X0071741Y0061217D01*
X0080037Y0061217D01*
X0081092Y0060163D01*
X0081092Y0046861D01*
X0080037Y0045806D01*
X0071742Y0045806D01*
X0071742Y0044656D02*
X0235819Y0044656D01*
X0235819Y0045272D02*
X0235819Y0042539D01*
X0237752Y0040606D01*
X0240485Y0040606D01*
X0241485Y0041606D01*
X0252166Y0041606D01*
X0255933Y0037839D01*
X0252336Y0037839D01*
X0249615Y0035117D01*
X0246893Y0037839D01*
X0242336Y0037839D01*
X0239615Y0035117D01*
X0236893Y0037839D01*
X0232336Y0037839D01*
X0229115Y0034617D01*
X0229115Y0030060D01*
X0231836Y0027339D01*
X0229115Y0024617D01*
X0229115Y0020060D01*
X0232336Y0016839D01*
X0236893Y0016839D01*
X0239615Y0019560D01*
X0242336Y0016839D01*
X0244415Y0016839D01*
X0244415Y0022138D01*
X0244815Y0022138D01*
X0244815Y0016839D01*
X0246893Y0016839D01*
X0249615Y0019560D01*
X0252336Y0016839D01*
X0254415Y0016839D01*
X0254415Y0022138D01*
X0254815Y0022138D01*
X0254815Y0016839D01*
X0256893Y0016839D01*
X0259615Y0019560D01*
X0262336Y0016839D01*
X0264415Y0016839D01*
X0264415Y0022138D01*
X0264815Y0022138D01*
X0264815Y0016839D01*
X0266893Y0016839D01*
X0269615Y0019560D01*
X0272336Y0016839D01*
X0274415Y0016839D01*
X0274415Y0022138D01*
X0274815Y0022138D01*
X0274815Y0016839D01*
X0276893Y0016839D01*
X0280115Y0020060D01*
X0280115Y0022139D01*
X0274815Y0022139D01*
X0274815Y0022539D01*
X0280115Y0022539D01*
X0280115Y0024617D01*
X0277393Y0027339D01*
X0280115Y0030060D01*
X0280115Y0034617D01*
X0276915Y0037817D01*
X0276915Y0044443D01*
X0278752Y0042606D01*
X0281485Y0042606D01*
X0283419Y0044539D01*
X0283419Y0055858D01*
X0282071Y0057205D01*
X0271371Y0067906D01*
X0276009Y0072543D01*
X0276009Y0083795D01*
X0276202Y0083875D01*
X0277439Y0085112D01*
X0278109Y0086730D01*
X0278109Y0093680D01*
X0277439Y0095297D01*
X0276202Y0096535D01*
X0274584Y0097205D01*
X0272834Y0097205D01*
X0271217Y0096535D01*
X0269979Y0095297D01*
X0269309Y0093680D01*
X0269309Y0086730D01*
X0269979Y0085112D01*
X0271217Y0083875D01*
X0271409Y0083795D01*
X0271409Y0074449D01*
X0267166Y0070205D01*
X0265819Y0068858D01*
X0265819Y0066953D01*
X0278819Y0053953D01*
X0278819Y0049205D01*
X0278752Y0049205D01*
X0276915Y0047368D01*
X0276915Y0053362D01*
X0264419Y0065858D01*
X0264419Y0083205D01*
X0264584Y0083205D01*
X0266202Y0083875D01*
X0267439Y0085112D01*
X0268109Y0086730D01*
X0268109Y0093680D01*
X0267439Y0095297D01*
X0266202Y0096535D01*
X0264584Y0097205D01*
X0262834Y0097205D01*
X0261217Y0096535D01*
X0259979Y0095297D01*
X0259309Y0093680D01*
X0259309Y0086730D01*
X0259819Y0085500D01*
X0259819Y0063953D01*
X0261166Y0062606D01*
X0272315Y0051457D01*
X0272315Y0037817D01*
X0269615Y0035117D01*
X0266893Y0037839D01*
X0262438Y0037839D01*
X0254071Y0046205D01*
X0241485Y0046205D01*
X0240485Y0047205D01*
X0237752Y0047205D01*
X0235819Y0045272D01*
X0236801Y0046255D02*
X0201943Y0046255D01*
X0201854Y0046166D02*
X0202189Y0046501D01*
X0202426Y0046912D01*
X0202548Y0047369D01*
X0202548Y0052712D01*
X0195643Y0052712D01*
X0195643Y0054312D01*
X0194043Y0054312D01*
X0194043Y0061217D01*
X0188701Y0061217D01*
X0188243Y0061095D01*
X0187832Y0060858D01*
X0187497Y0060523D01*
X0187260Y0060112D01*
X0187137Y0059654D01*
X0187137Y0054312D01*
X0194043Y0054312D01*
X0194043Y0052712D01*
X0187137Y0052712D01*
X0187137Y0047369D01*
X0187260Y0046912D01*
X0187497Y0046501D01*
X0187832Y0046166D01*
X0188243Y0045929D01*
X0188701Y0045806D01*
X0194043Y0045806D01*
X0194043Y0052712D01*
X0195643Y0052712D01*
X0195643Y0045806D01*
X0200985Y0045806D01*
X0201443Y0045929D01*
X0201854Y0046166D01*
X0202548Y0047853D02*
X0272315Y0047853D01*
X0272315Y0046255D02*
X0241436Y0046255D01*
X0235819Y0043058D02*
X0071742Y0043058D01*
X0071742Y0041459D02*
X0236898Y0041459D01*
X0241339Y0041459D02*
X0252312Y0041459D01*
X0253911Y0039861D02*
X0198611Y0039861D01*
X0198611Y0040084D02*
X0197557Y0041139D01*
X0188192Y0041139D01*
X0187137Y0040084D01*
X0187137Y0035443D01*
X0188192Y0034389D01*
X0197557Y0034389D01*
X0198611Y0035443D01*
X0198611Y0040084D01*
X0198611Y0038262D02*
X0255509Y0038262D01*
X0258817Y0041459D02*
X0272315Y0041459D01*
X0272315Y0039861D02*
X0260416Y0039861D01*
X0262014Y0038262D02*
X0272315Y0038262D01*
X0271162Y0036664D02*
X0268068Y0036664D01*
X0276915Y0038262D02*
X0302819Y0038262D01*
X0302819Y0039858D02*
X0302819Y0030272D01*
X0301819Y0029272D01*
X0301819Y0026539D01*
X0303752Y0024606D01*
X0306485Y0024606D01*
X0308419Y0026539D01*
X0308419Y0029272D01*
X0307419Y0030272D01*
X0307419Y0037606D01*
X0317607Y0037606D01*
X0314540Y0034538D01*
X0314540Y0029982D01*
X0317262Y0027260D01*
X0314540Y0024538D01*
X0314540Y0022460D01*
X0319840Y0022460D01*
X0319840Y0022060D01*
X0320240Y0022060D01*
X0320240Y0016760D01*
X0322318Y0016760D01*
X0325040Y0019482D01*
X0327762Y0016760D01*
X0332318Y0016760D01*
X0335040Y0019482D01*
X0337762Y0016760D01*
X0342318Y0016760D01*
X0345540Y0019982D01*
X0345540Y0024538D01*
X0342818Y0027260D01*
X0345540Y0029982D01*
X0345540Y0034538D01*
X0342318Y0037760D01*
X0337762Y0037760D01*
X0335040Y0035038D01*
X0332318Y0037760D01*
X0329389Y0037760D01*
X0328193Y0039728D01*
X0334071Y0045606D01*
X0343032Y0045606D01*
X0364129Y0019938D01*
X0363701Y0018905D01*
X0363701Y0016717D01*
X0364539Y0014696D01*
X0366086Y0013148D01*
X0368107Y0012311D01*
X0370295Y0012311D01*
X0372317Y0013148D01*
X0373864Y0014696D01*
X0374701Y0016717D01*
X0374701Y0018905D01*
X0373864Y0020927D01*
X0372317Y0022474D01*
X0372002Y0022604D01*
X0373317Y0023148D01*
X0374864Y0024696D01*
X0375701Y0026717D01*
X0375701Y0028905D01*
X0374864Y0030927D01*
X0373317Y0032474D01*
X0371951Y0033039D01*
X0372084Y0033107D01*
X0372784Y0033616D01*
X0373396Y0034228D01*
X0373905Y0034928D01*
X0374298Y0035700D01*
X0374566Y0036523D01*
X0374701Y0037378D01*
X0374701Y0037611D01*
X0369401Y0037611D01*
X0369401Y0038011D01*
X0369001Y0038011D01*
X0369001Y0043311D01*
X0368768Y0043311D01*
X0367913Y0043176D01*
X0367090Y0042908D01*
X0366319Y0042515D01*
X0365618Y0042006D01*
X0365006Y0041394D01*
X0364497Y0040694D01*
X0364104Y0039922D01*
X0363837Y0039099D01*
X0363778Y0038730D01*
X0346407Y0058764D01*
X0346407Y0058858D01*
X0345791Y0059474D01*
X0345220Y0060132D01*
X0345126Y0060139D01*
X0345059Y0060205D01*
X0344189Y0060205D01*
X0343320Y0060267D01*
X0343248Y0060205D01*
X0326282Y0060205D01*
X0325501Y0060317D01*
X0325352Y0060205D01*
X0325166Y0060205D01*
X0324608Y0059647D01*
X0317352Y0054205D01*
X0317166Y0054205D01*
X0316608Y0053647D01*
X0315976Y0053174D01*
X0315950Y0052990D01*
X0315819Y0052858D01*
X0315819Y0052272D01*
X0314819Y0051272D01*
X0314819Y0048539D01*
X0316752Y0046606D01*
X0319485Y0046606D01*
X0321419Y0048539D01*
X0321419Y0051272D01*
X0321285Y0051406D01*
X0326885Y0055606D01*
X0343057Y0055606D01*
X0365189Y0030081D01*
X0364701Y0028905D01*
X0364701Y0026717D01*
X0364894Y0026252D01*
X0346419Y0048729D01*
X0346419Y0048858D01*
X0345824Y0049453D01*
X0345290Y0050102D01*
X0345162Y0050114D01*
X0345071Y0050205D01*
X0344231Y0050205D01*
X0343394Y0050287D01*
X0343295Y0050205D01*
X0332166Y0050205D01*
X0324166Y0042205D01*
X0305166Y0042205D01*
X0303819Y0040858D01*
X0302819Y0039858D01*
X0302821Y0039861D02*
X0276915Y0039861D01*
X0276915Y0041459D02*
X0304420Y0041459D01*
X0302819Y0036664D02*
X0278068Y0036664D01*
X0279666Y0035065D02*
X0302819Y0035065D01*
X0302819Y0033467D02*
X0280115Y0033467D01*
X0280115Y0031868D02*
X0302819Y0031868D01*
X0302816Y0030270D02*
X0280115Y0030270D01*
X0278725Y0028671D02*
X0301819Y0028671D01*
X0301819Y0027073D02*
X0277659Y0027073D01*
X0279257Y0025474D02*
X0302883Y0025474D01*
X0307354Y0025474D02*
X0315476Y0025474D01*
X0314540Y0023876D02*
X0280115Y0023876D01*
X0280115Y0020679D02*
X0314540Y0020679D01*
X0314540Y0019982D02*
X0317762Y0016760D01*
X0319840Y0016760D01*
X0319840Y0022060D01*
X0314540Y0022060D01*
X0314540Y0019982D01*
X0315441Y0019080D02*
X0279134Y0019080D01*
X0277536Y0017482D02*
X0317040Y0017482D01*
X0319840Y0017482D02*
X0320240Y0017482D01*
X0320240Y0019080D02*
X0319840Y0019080D01*
X0319840Y0020679D02*
X0320240Y0020679D01*
X0320040Y0022260D02*
X0274693Y0022260D01*
X0274615Y0022339D01*
X0264615Y0022339D01*
X0254615Y0022339D01*
X0244615Y0022339D01*
X0244615Y0017402D01*
X0238119Y0010906D01*
X0201119Y0010906D01*
X0193119Y0018906D01*
X0190589Y0019593D02*
X0188408Y0017412D01*
X0185558Y0016231D01*
X0182474Y0016231D01*
X0179625Y0017412D01*
X0177444Y0019593D01*
X0176263Y0022442D01*
X0176263Y0025526D01*
X0177444Y0028376D01*
X0179625Y0030557D01*
X0182474Y0031737D01*
X0185558Y0031737D01*
X0188408Y0030557D01*
X0190589Y0028376D01*
X0191769Y0025526D01*
X0191769Y0022442D01*
X0190589Y0019593D01*
X0190076Y0019080D02*
X0230095Y0019080D01*
X0229115Y0020679D02*
X0191039Y0020679D01*
X0191701Y0022277D02*
X0229115Y0022277D01*
X0229115Y0023876D02*
X0191769Y0023876D01*
X0191769Y0025474D02*
X0229972Y0025474D01*
X0231571Y0027073D02*
X0191128Y0027073D01*
X0190293Y0028671D02*
X0230504Y0028671D01*
X0229115Y0030270D02*
X0188695Y0030270D01*
X0187516Y0035065D02*
X0071743Y0035065D01*
X0071743Y0033467D02*
X0229115Y0033467D01*
X0229115Y0031868D02*
X0071743Y0031868D01*
X0071743Y0030270D02*
X0084062Y0030270D01*
X0084349Y0030557D02*
X0082168Y0028376D01*
X0080988Y0025526D01*
X0080988Y0022442D01*
X0082168Y0019593D01*
X0084349Y0017412D01*
X0087199Y0016231D01*
X0090283Y0016231D01*
X0093132Y0017412D01*
X0095313Y0019593D01*
X0096493Y0022442D01*
X0096493Y0025526D01*
X0095313Y0028376D01*
X0093132Y0030557D01*
X0090283Y0031737D01*
X0087199Y0031737D01*
X0084349Y0030557D01*
X0082464Y0028671D02*
X0071743Y0028671D01*
X0071743Y0027073D02*
X0081628Y0027073D01*
X0080988Y0025474D02*
X0071744Y0025474D01*
X0071744Y0023876D02*
X0080988Y0023876D01*
X0081056Y0022277D02*
X0071744Y0022277D01*
X0071744Y0020679D02*
X0081718Y0020679D01*
X0082681Y0019080D02*
X0071744Y0019080D01*
X0071744Y0017482D02*
X0084279Y0017482D01*
X0093202Y0017482D02*
X0179555Y0017482D01*
X0177956Y0019080D02*
X0094801Y0019080D01*
X0095763Y0020679D02*
X0176994Y0020679D01*
X0176332Y0022277D02*
X0096425Y0022277D01*
X0096493Y0023876D02*
X0176263Y0023876D01*
X0176263Y0025474D02*
X0096493Y0025474D01*
X0095853Y0027073D02*
X0176904Y0027073D01*
X0177739Y0028671D02*
X0095018Y0028671D01*
X0093419Y0030270D02*
X0179338Y0030270D01*
X0187137Y0036664D02*
X0071743Y0036664D01*
X0071743Y0038262D02*
X0187137Y0038262D01*
X0187137Y0039861D02*
X0071743Y0039861D01*
X0080486Y0046255D02*
X0187743Y0046255D01*
X0187137Y0047853D02*
X0081092Y0047853D01*
X0081092Y0049452D02*
X0187137Y0049452D01*
X0187137Y0051050D02*
X0081092Y0051050D01*
X0081092Y0052649D02*
X0187137Y0052649D01*
X0187137Y0055846D02*
X0081092Y0055846D01*
X0081092Y0057444D02*
X0187137Y0057444D01*
X0187137Y0059043D02*
X0081092Y0059043D01*
X0080613Y0060641D02*
X0187616Y0060641D01*
X0194043Y0060641D02*
X0195643Y0060641D01*
X0195643Y0061217D02*
X0195643Y0054312D01*
X0202548Y0054312D01*
X0202548Y0059606D01*
X0248071Y0059606D01*
X0254272Y0065806D01*
X0256518Y0065806D01*
X0257572Y0066861D01*
X0257572Y0075438D01*
X0256518Y0076493D01*
X0248727Y0076493D01*
X0247673Y0075438D01*
X0247673Y0066861D01*
X0248247Y0066287D01*
X0246166Y0064205D01*
X0203085Y0064205D01*
X0203419Y0064539D01*
X0203419Y0067272D01*
X0201485Y0069205D01*
X0198752Y0069205D01*
X0196819Y0067272D01*
X0196819Y0064539D01*
X0197819Y0063539D01*
X0197819Y0061217D01*
X0195643Y0061217D01*
X0195643Y0059043D02*
X0194043Y0059043D01*
X0194043Y0057444D02*
X0195643Y0057444D01*
X0195643Y0055846D02*
X0194043Y0055846D01*
X0194043Y0054247D02*
X0081092Y0054247D01*
X0071741Y0062240D02*
X0197819Y0062240D01*
X0197519Y0063839D02*
X0071741Y0063839D01*
X0071741Y0065437D02*
X0196819Y0065437D01*
X0196819Y0067036D02*
X0071741Y0067036D01*
X0071740Y0068634D02*
X0198180Y0068634D01*
X0202057Y0068634D02*
X0236649Y0068634D01*
X0236649Y0067036D02*
X0203419Y0067036D01*
X0203419Y0065437D02*
X0247397Y0065437D01*
X0247673Y0067036D02*
X0246548Y0067036D01*
X0246548Y0066861D02*
X0246548Y0075438D01*
X0245494Y0076493D01*
X0242784Y0076493D01*
X0236419Y0082858D01*
X0236419Y0084092D01*
X0237439Y0085112D01*
X0238109Y0086730D01*
X0238109Y0093680D01*
X0237439Y0095297D01*
X0236202Y0096535D01*
X0234584Y0097205D01*
X0232834Y0097205D01*
X0231217Y0096535D01*
X0229979Y0095297D01*
X0229309Y0093680D01*
X0229309Y0086730D01*
X0229979Y0085112D01*
X0231217Y0083875D01*
X0231819Y0083625D01*
X0231819Y0080953D01*
X0233166Y0079606D01*
X0233739Y0079032D01*
X0226580Y0079032D01*
X0226580Y0080478D01*
X0225526Y0081532D01*
X0221034Y0081532D01*
X0219980Y0080478D01*
X0219980Y0072987D01*
X0221034Y0071932D01*
X0225526Y0071932D01*
X0226580Y0072987D01*
X0226580Y0074432D01*
X0235064Y0074432D01*
X0236649Y0072847D01*
X0236649Y0066861D01*
X0237704Y0065806D01*
X0245494Y0065806D01*
X0246548Y0066861D01*
X0246548Y0068634D02*
X0247673Y0068634D01*
X0247673Y0070233D02*
X0246548Y0070233D01*
X0246548Y0071831D02*
X0247673Y0071831D01*
X0247673Y0073430D02*
X0246548Y0073430D01*
X0246548Y0075028D02*
X0247673Y0075028D01*
X0242650Y0076627D02*
X0259819Y0076627D01*
X0259819Y0078225D02*
X0241052Y0078225D01*
X0239453Y0079824D02*
X0259819Y0079824D01*
X0259819Y0081422D02*
X0237855Y0081422D01*
X0236419Y0083021D02*
X0259819Y0083021D01*
X0259819Y0084619D02*
X0256946Y0084619D01*
X0257439Y0085112D02*
X0258109Y0086730D01*
X0258109Y0093680D01*
X0257439Y0095297D01*
X0256202Y0096535D01*
X0254584Y0097205D01*
X0252834Y0097205D01*
X0251217Y0096535D01*
X0249979Y0095297D01*
X0249309Y0093680D01*
X0249309Y0086730D01*
X0249979Y0085112D01*
X0251217Y0083875D01*
X0252834Y0083205D01*
X0254584Y0083205D01*
X0256202Y0083875D01*
X0257439Y0085112D01*
X0257897Y0086218D02*
X0259521Y0086218D01*
X0259309Y0087816D02*
X0258109Y0087816D01*
X0258109Y0089415D02*
X0259309Y0089415D01*
X0259309Y0091013D02*
X0258109Y0091013D01*
X0258109Y0092612D02*
X0259309Y0092612D01*
X0259529Y0094210D02*
X0257889Y0094210D01*
X0256928Y0095809D02*
X0260491Y0095809D01*
X0266928Y0095809D02*
X0270491Y0095809D01*
X0269529Y0094210D02*
X0267889Y0094210D01*
X0268109Y0092612D02*
X0269309Y0092612D01*
X0269309Y0091013D02*
X0268109Y0091013D01*
X0268109Y0089415D02*
X0269309Y0089415D01*
X0269309Y0087816D02*
X0268109Y0087816D01*
X0267897Y0086218D02*
X0269521Y0086218D01*
X0270472Y0084619D02*
X0266946Y0084619D01*
X0264419Y0083021D02*
X0271409Y0083021D01*
X0271409Y0081422D02*
X0264419Y0081422D01*
X0264419Y0079824D02*
X0271409Y0079824D01*
X0271409Y0078225D02*
X0264419Y0078225D01*
X0264419Y0076627D02*
X0271409Y0076627D01*
X0271409Y0075028D02*
X0264419Y0075028D01*
X0264419Y0073430D02*
X0270390Y0073430D01*
X0268791Y0071831D02*
X0264419Y0071831D01*
X0264419Y0070233D02*
X0267193Y0070233D01*
X0265819Y0068634D02*
X0264419Y0068634D01*
X0264419Y0067036D02*
X0265819Y0067036D01*
X0264840Y0065437D02*
X0267334Y0065437D01*
X0266438Y0063839D02*
X0268933Y0063839D01*
X0268037Y0062240D02*
X0270531Y0062240D01*
X0269635Y0060641D02*
X0272130Y0060641D01*
X0271234Y0059043D02*
X0273728Y0059043D01*
X0272832Y0057444D02*
X0275327Y0057444D01*
X0274431Y0055846D02*
X0276925Y0055846D01*
X0276029Y0054247D02*
X0278524Y0054247D01*
X0278819Y0052649D02*
X0276915Y0052649D01*
X0276915Y0051050D02*
X0278819Y0051050D01*
X0278819Y0049452D02*
X0276915Y0049452D01*
X0276915Y0047853D02*
X0277400Y0047853D01*
X0272315Y0049452D02*
X0202548Y0049452D01*
X0202548Y0051050D02*
X0204980Y0051050D01*
X0204980Y0050987D02*
X0206034Y0049932D01*
X0210526Y0049932D01*
X0211580Y0050987D01*
X0211580Y0058478D01*
X0210526Y0059532D01*
X0206034Y0059532D01*
X0204980Y0058478D01*
X0204980Y0050987D01*
X0204980Y0052649D02*
X0202548Y0052649D01*
X0204980Y0054247D02*
X0195643Y0054247D01*
X0194843Y0053512D02*
X0194843Y0065181D01*
X0192119Y0067906D01*
X0200945Y0076732D01*
X0208280Y0076732D01*
X0208280Y0071932D01*
X0206543Y0071932D01*
X0206085Y0072055D01*
X0205675Y0072292D01*
X0205340Y0072627D01*
X0205103Y0073038D01*
X0204980Y0073495D01*
X0204980Y0076732D01*
X0208280Y0076732D01*
X0208280Y0076732D01*
X0208280Y0071932D01*
X0210017Y0071932D01*
X0210475Y0072055D01*
X0210885Y0072292D01*
X0211220Y0072627D01*
X0211457Y0073038D01*
X0211580Y0073495D01*
X0211580Y0076732D01*
X0208280Y0076732D01*
X0208280Y0076732D01*
X0208280Y0076732D01*
X0204980Y0076732D01*
X0204980Y0079969D01*
X0205103Y0080427D01*
X0205340Y0080838D01*
X0205675Y0081173D01*
X0206085Y0081410D01*
X0206543Y0081532D01*
X0208280Y0081532D01*
X0208280Y0076732D01*
X0211580Y0076732D01*
X0211580Y0079969D01*
X0211457Y0080427D01*
X0211220Y0080838D01*
X0210885Y0081173D01*
X0210475Y0081410D01*
X0210017Y0081532D01*
X0208280Y0081532D01*
X0208280Y0076732D01*
X0208280Y0076732D01*
X0208280Y0076627D02*
X0208280Y0076627D01*
X0208280Y0078225D02*
X0208280Y0078225D01*
X0208280Y0079824D02*
X0208280Y0079824D01*
X0208280Y0081422D02*
X0208280Y0081422D01*
X0206132Y0081422D02*
X0071740Y0081422D01*
X0071740Y0079824D02*
X0187310Y0079824D01*
X0187137Y0079651D02*
X0187137Y0075010D01*
X0188192Y0073956D01*
X0197557Y0073956D01*
X0198611Y0075010D01*
X0198611Y0079651D01*
X0197557Y0080705D01*
X0188192Y0080705D01*
X0187137Y0079651D01*
X0187137Y0078225D02*
X0071740Y0078225D01*
X0071740Y0076627D02*
X0187137Y0076627D01*
X0187137Y0075028D02*
X0071740Y0075028D01*
X0071740Y0073430D02*
X0204998Y0073430D01*
X0204980Y0075028D02*
X0198611Y0075028D01*
X0198611Y0076627D02*
X0204980Y0076627D01*
X0204980Y0078225D02*
X0198611Y0078225D01*
X0198439Y0079824D02*
X0204980Y0079824D01*
X0210428Y0081422D02*
X0220924Y0081422D01*
X0219980Y0079824D02*
X0211580Y0079824D01*
X0211580Y0078225D02*
X0219980Y0078225D01*
X0219980Y0076627D02*
X0211580Y0076627D01*
X0211580Y0075028D02*
X0219980Y0075028D01*
X0219980Y0073430D02*
X0211562Y0073430D01*
X0208280Y0073430D02*
X0208280Y0073430D01*
X0208280Y0075028D02*
X0208280Y0075028D01*
X0216077Y0083506D02*
X0198385Y0083506D01*
X0197485Y0082606D01*
X0194752Y0082606D01*
X0192819Y0084539D01*
X0192819Y0087272D01*
X0194752Y0089205D01*
X0196152Y0089205D01*
X0194819Y0090539D01*
X0194819Y0093272D01*
X0196752Y0095205D01*
X0199485Y0095205D01*
X0200385Y0094305D01*
X0217124Y0094305D01*
X0228084Y0105265D01*
X0228324Y0105506D01*
X0209641Y0105506D01*
X0208759Y0105871D01*
X0199124Y0115506D01*
X0193113Y0115506D01*
X0190006Y0112398D01*
X0201494Y0112398D01*
X0202548Y0111344D01*
X0202548Y0098042D01*
X0201494Y0096987D01*
X0188192Y0096987D01*
X0187137Y0098042D01*
X0187137Y0109730D01*
X0186596Y0109506D01*
X0179185Y0109506D01*
X0180419Y0108272D01*
X0180419Y0105539D01*
X0179419Y0104539D01*
X0179419Y0094953D01*
X0174419Y0089953D01*
X0173071Y0088606D01*
X0130166Y0088606D01*
X0118166Y0100606D01*
X0116752Y0100606D01*
X0114819Y0102539D01*
X0114819Y0105272D01*
X0116752Y0107205D01*
X0119133Y0107205D01*
X0111623Y0114715D01*
X0111612Y0114704D01*
X0106971Y0114704D01*
X0105917Y0115758D01*
X0105917Y0125124D01*
X0106971Y0126178D01*
X0111612Y0126178D01*
X0112667Y0125124D01*
X0112667Y0120460D01*
X0115760Y0117367D01*
X0115760Y0125124D01*
X0116814Y0126178D01*
X0121455Y0126178D01*
X0122509Y0125124D01*
X0122509Y0120460D01*
X0128664Y0114305D01*
X0157852Y0114305D01*
X0158250Y0114704D01*
X0156693Y0114704D01*
X0156235Y0114827D01*
X0155824Y0115064D01*
X0155489Y0115399D01*
X0155252Y0115809D01*
X0155130Y0116267D01*
X0155130Y0120441D01*
X0158504Y0120441D01*
X0158504Y0120441D01*
X0155130Y0120441D01*
X0155130Y0124615D01*
X0155252Y0125073D01*
X0155489Y0125483D01*
X0155824Y0125818D01*
X0156235Y0126055D01*
X0156693Y0126178D01*
X0158504Y0126178D01*
X0158504Y0120441D01*
X0158504Y0120441D01*
X0159119Y0121055D01*
X0159119Y0134906D01*
X0152419Y0131272D02*
X0150485Y0133205D01*
X0147752Y0133205D01*
X0145819Y0131272D01*
X0145819Y0128539D01*
X0146719Y0127639D01*
X0146719Y0126178D01*
X0146341Y0126178D01*
X0145287Y0125124D01*
X0145287Y0115758D01*
X0146341Y0114704D01*
X0150982Y0114704D01*
X0152037Y0115758D01*
X0152037Y0125124D01*
X0151519Y0125642D01*
X0151519Y0127639D01*
X0152419Y0128539D01*
X0152419Y0131272D01*
X0152419Y0130976D02*
X0171354Y0130976D01*
X0171236Y0130858D02*
X0171236Y0130522D01*
X0168728Y0126178D01*
X0165751Y0126178D01*
X0164697Y0125124D01*
X0164697Y0115758D01*
X0165751Y0114704D01*
X0170392Y0114704D01*
X0171418Y0115730D01*
X0172444Y0114704D01*
X0177085Y0114704D01*
X0178139Y0115758D01*
X0178139Y0125124D01*
X0177085Y0126178D01*
X0174040Y0126178D01*
X0174864Y0127606D01*
X0192166Y0127606D01*
X0199466Y0120305D01*
X0191641Y0120305D01*
X0190759Y0119940D01*
X0185124Y0114305D01*
X0169641Y0114305D01*
X0168759Y0113940D01*
X0167024Y0112205D01*
X0165752Y0112205D01*
X0163819Y0110272D01*
X0163819Y0107539D01*
X0165752Y0105606D01*
X0168485Y0105606D01*
X0170419Y0107539D01*
X0170419Y0108811D01*
X0171113Y0109506D01*
X0175052Y0109506D01*
X0173819Y0108272D01*
X0173819Y0105539D01*
X0174819Y0104539D01*
X0174819Y0096858D01*
X0173419Y0095458D01*
X0173419Y0097272D01*
X0171485Y0099205D01*
X0168752Y0099205D01*
X0167852Y0098305D01*
X0134821Y0098305D01*
X0118423Y0114704D01*
X0121455Y0114704D01*
X0121466Y0114715D01*
X0126310Y0109871D01*
X0127192Y0109506D01*
X0157852Y0109506D01*
X0158752Y0108606D01*
X0161485Y0108606D01*
X0163419Y0110539D01*
X0163419Y0113272D01*
X0161485Y0115205D01*
X0161326Y0115205D01*
X0161520Y0115399D01*
X0161757Y0115809D01*
X0161879Y0116267D01*
X0161879Y0120441D01*
X0161879Y0124615D01*
X0161757Y0125073D01*
X0161520Y0125483D01*
X0161184Y0125818D01*
X0160774Y0126055D01*
X0160316Y0126178D01*
X0158504Y0126178D01*
X0158504Y0120441D01*
X0158505Y0120441D02*
X0161879Y0120441D01*
X0158505Y0120441D01*
X0158505Y0120441D01*
X0158504Y0121385D02*
X0158504Y0121385D01*
X0158504Y0122983D02*
X0158504Y0122983D01*
X0158504Y0124582D02*
X0158504Y0124582D01*
X0155130Y0124582D02*
X0152037Y0124582D01*
X0152037Y0122983D02*
X0155130Y0122983D01*
X0155130Y0121385D02*
X0152037Y0121385D01*
X0152037Y0119786D02*
X0155130Y0119786D01*
X0155130Y0118188D02*
X0152037Y0118188D01*
X0152037Y0116589D02*
X0155130Y0116589D01*
X0155950Y0114991D02*
X0151269Y0114991D01*
X0146055Y0114991D02*
X0141427Y0114991D01*
X0141140Y0114704D02*
X0142194Y0115758D01*
X0142194Y0125124D01*
X0141419Y0125898D01*
X0141419Y0131722D01*
X0141419Y0131724D01*
X0141419Y0133272D01*
X0139485Y0135205D01*
X0136752Y0135205D01*
X0134819Y0133272D01*
X0134819Y0130539D01*
X0136219Y0129138D01*
X0136219Y0125898D01*
X0135445Y0125124D01*
X0135445Y0124826D01*
X0135379Y0125073D01*
X0135142Y0125483D01*
X0134806Y0125818D01*
X0134396Y0126055D01*
X0133938Y0126178D01*
X0132127Y0126178D01*
X0132127Y0120441D01*
X0132126Y0120441D01*
X0132126Y0120441D01*
X0128752Y0120441D01*
X0128752Y0124615D01*
X0128874Y0125073D01*
X0129111Y0125483D01*
X0129446Y0125818D01*
X0129857Y0126055D01*
X0130315Y0126178D01*
X0132126Y0126178D01*
X0132126Y0120441D01*
X0128752Y0120441D01*
X0128752Y0116267D01*
X0128874Y0115809D01*
X0129111Y0115399D01*
X0129446Y0115064D01*
X0129857Y0114827D01*
X0130315Y0114704D01*
X0132126Y0114704D01*
X0132126Y0120441D01*
X0132127Y0120441D01*
X0132127Y0114704D01*
X0133938Y0114704D01*
X0134396Y0114827D01*
X0134806Y0115064D01*
X0135142Y0115399D01*
X0135379Y0115809D01*
X0135445Y0116055D01*
X0135445Y0115758D01*
X0136499Y0114704D01*
X0141140Y0114704D01*
X0142194Y0116589D02*
X0145287Y0116589D01*
X0145287Y0118188D02*
X0142194Y0118188D01*
X0142194Y0119786D02*
X0145287Y0119786D01*
X0145287Y0121385D02*
X0142194Y0121385D01*
X0142194Y0122983D02*
X0145287Y0122983D01*
X0145287Y0124582D02*
X0142194Y0124582D01*
X0141419Y0126180D02*
X0146719Y0126180D01*
X0146578Y0127779D02*
X0141419Y0127779D01*
X0141419Y0129377D02*
X0145819Y0129377D01*
X0145819Y0130976D02*
X0141419Y0130976D01*
X0141419Y0132575D02*
X0147121Y0132575D01*
X0151116Y0132575D02*
X0172284Y0132575D01*
X0172583Y0132205D02*
X0172345Y0131968D01*
X0172020Y0131881D01*
X0171695Y0131318D01*
X0171236Y0130858D01*
X0170575Y0129377D02*
X0152419Y0129377D01*
X0151659Y0127779D02*
X0169652Y0127779D01*
X0168729Y0126180D02*
X0151519Y0126180D01*
X0161879Y0124582D02*
X0164697Y0124582D01*
X0164697Y0122983D02*
X0161879Y0122983D01*
X0161879Y0121385D02*
X0164697Y0121385D01*
X0164697Y0119786D02*
X0161879Y0119786D01*
X0161879Y0118188D02*
X0164697Y0118188D01*
X0164697Y0116589D02*
X0161879Y0116589D01*
X0161700Y0114991D02*
X0165464Y0114991D01*
X0163299Y0113392D02*
X0168211Y0113392D01*
X0170679Y0114991D02*
X0172157Y0114991D01*
X0177372Y0114991D02*
X0180084Y0114991D01*
X0179958Y0115064D02*
X0180369Y0114827D01*
X0180826Y0114704D01*
X0182638Y0114704D01*
X0182638Y0120441D01*
X0182638Y0120441D01*
X0179263Y0120441D01*
X0179263Y0124615D01*
X0179386Y0125073D01*
X0179623Y0125483D01*
X0179958Y0125818D01*
X0180369Y0126055D01*
X0180826Y0126178D01*
X0182638Y0126178D01*
X0182638Y0120441D01*
X0179263Y0120441D01*
X0179263Y0116267D01*
X0179386Y0115809D01*
X0179623Y0115399D01*
X0179958Y0115064D01*
X0179263Y0116589D02*
X0178139Y0116589D01*
X0178139Y0118188D02*
X0179263Y0118188D01*
X0179263Y0119786D02*
X0178139Y0119786D01*
X0178139Y0121385D02*
X0179263Y0121385D01*
X0179263Y0122983D02*
X0178139Y0122983D01*
X0178139Y0124582D02*
X0179263Y0124582D01*
X0182638Y0124582D02*
X0182638Y0124582D01*
X0182638Y0126178D02*
X0182638Y0120441D01*
X0182638Y0120441D01*
X0182638Y0120441D01*
X0184654Y0120441D01*
X0189119Y0124906D01*
X0186013Y0124615D02*
X0185890Y0125073D01*
X0185653Y0125483D01*
X0185318Y0125818D01*
X0184908Y0126055D01*
X0184450Y0126178D01*
X0182638Y0126178D01*
X0182638Y0122983D02*
X0182638Y0122983D01*
X0182638Y0121385D02*
X0182638Y0121385D01*
X0182638Y0120441D02*
X0186013Y0120441D01*
X0186013Y0124615D01*
X0186013Y0124582D02*
X0195189Y0124582D01*
X0193591Y0126180D02*
X0174041Y0126180D01*
X0182638Y0120441D02*
X0182638Y0120441D01*
X0182638Y0114704D01*
X0184450Y0114704D01*
X0184908Y0114827D01*
X0185318Y0115064D01*
X0185653Y0115399D01*
X0185890Y0115809D01*
X0186013Y0116267D01*
X0186013Y0120441D01*
X0182638Y0120441D01*
X0182638Y0119786D02*
X0182638Y0119786D01*
X0182638Y0118188D02*
X0182638Y0118188D01*
X0182638Y0116589D02*
X0182638Y0116589D01*
X0182638Y0114991D02*
X0182638Y0114991D01*
X0185192Y0114991D02*
X0185810Y0114991D01*
X0186013Y0116589D02*
X0187408Y0116589D01*
X0186013Y0118188D02*
X0189007Y0118188D01*
X0190605Y0119786D02*
X0186013Y0119786D01*
X0186013Y0121385D02*
X0198386Y0121385D01*
X0196788Y0122983D02*
X0186013Y0122983D01*
X0192598Y0114991D02*
X0199639Y0114991D01*
X0201238Y0113392D02*
X0191000Y0113392D01*
X0196119Y0110906D02*
X0198119Y0112906D01*
X0196119Y0110906D02*
X0196119Y0104906D01*
X0186119Y0094906D01*
X0186119Y0073906D01*
X0192119Y0067906D01*
X0202548Y0059043D02*
X0205545Y0059043D01*
X0204980Y0057444D02*
X0202548Y0057444D01*
X0202548Y0055846D02*
X0204980Y0055846D01*
X0211580Y0055846D02*
X0219980Y0055846D01*
X0219980Y0057444D02*
X0211580Y0057444D01*
X0211015Y0059043D02*
X0220545Y0059043D01*
X0221034Y0059532D02*
X0219980Y0058478D01*
X0219980Y0050987D01*
X0221034Y0049932D01*
X0225526Y0049932D01*
X0226580Y0050987D01*
X0226580Y0058478D01*
X0225526Y0059532D01*
X0221034Y0059532D01*
X0226015Y0059043D02*
X0264728Y0059043D01*
X0263130Y0060641D02*
X0249107Y0060641D01*
X0250706Y0062240D02*
X0261531Y0062240D01*
X0259933Y0063839D02*
X0252304Y0063839D01*
X0253903Y0065437D02*
X0259819Y0065437D01*
X0259819Y0067036D02*
X0257572Y0067036D01*
X0257572Y0068634D02*
X0259819Y0068634D01*
X0259819Y0070233D02*
X0257572Y0070233D01*
X0257572Y0071831D02*
X0259819Y0071831D01*
X0259819Y0073430D02*
X0257572Y0073430D01*
X0257572Y0075028D02*
X0259819Y0075028D01*
X0272100Y0068634D02*
X0304059Y0068634D01*
X0304059Y0067036D02*
X0272241Y0067036D01*
X0273840Y0065437D02*
X0304059Y0065437D01*
X0304059Y0064664D02*
X0305113Y0063609D01*
X0313691Y0063609D01*
X0314745Y0064664D01*
X0314745Y0066259D01*
X0317261Y0066259D01*
X0318219Y0065301D01*
X0320075Y0064533D01*
X0322084Y0064533D01*
X0323940Y0065301D01*
X0325360Y0066722D01*
X0326129Y0068578D01*
X0326129Y0070587D01*
X0325360Y0072443D01*
X0323940Y0073864D01*
X0322084Y0074633D01*
X0320075Y0074633D01*
X0318219Y0073864D01*
X0316798Y0072443D01*
X0316142Y0070859D01*
X0314745Y0070859D01*
X0314745Y0072454D01*
X0313691Y0073509D01*
X0305113Y0073509D01*
X0304059Y0072454D01*
X0304059Y0064664D01*
X0304884Y0063839D02*
X0275438Y0063839D01*
X0277037Y0062240D02*
X0304952Y0062240D01*
X0304754Y0062125D02*
X0304418Y0061790D01*
X0304181Y0061380D01*
X0304059Y0060922D01*
X0304059Y0058310D01*
X0308627Y0058310D01*
X0308627Y0056761D01*
X0304059Y0056761D01*
X0304059Y0054149D01*
X0304181Y0053691D01*
X0304418Y0053281D01*
X0304754Y0052945D01*
X0305164Y0052708D01*
X0305622Y0052586D01*
X0308627Y0052586D01*
X0308627Y0056761D01*
X0310177Y0056761D01*
X0310177Y0058310D01*
X0314745Y0058310D01*
X0314745Y0060922D01*
X0314623Y0061380D01*
X0314386Y0061790D01*
X0314051Y0062125D01*
X0313640Y0062362D01*
X0313182Y0062485D01*
X0310177Y0062485D01*
X0310177Y0058310D01*
X0308627Y0058310D01*
X0308627Y0062485D01*
X0305622Y0062485D01*
X0305164Y0062362D01*
X0304754Y0062125D01*
X0304059Y0060641D02*
X0278635Y0060641D01*
X0280234Y0059043D02*
X0304059Y0059043D01*
X0308627Y0059043D02*
X0310177Y0059043D01*
X0310177Y0060641D02*
X0308627Y0060641D01*
X0308627Y0062240D02*
X0310177Y0062240D01*
X0313852Y0062240D02*
X0392870Y0062240D01*
X0392870Y0060641D02*
X0314745Y0060641D01*
X0314745Y0059043D02*
X0323802Y0059043D01*
X0321671Y0057444D02*
X0310177Y0057444D01*
X0310177Y0056761D02*
X0314745Y0056761D01*
X0314745Y0054149D01*
X0314623Y0053691D01*
X0314386Y0053281D01*
X0314051Y0052945D01*
X0313640Y0052708D01*
X0313182Y0052586D01*
X0310177Y0052586D01*
X0310177Y0056761D01*
X0310177Y0055846D02*
X0308627Y0055846D01*
X0308627Y0057444D02*
X0281832Y0057444D01*
X0283419Y0055846D02*
X0304059Y0055846D01*
X0304059Y0054247D02*
X0283419Y0054247D01*
X0283419Y0052649D02*
X0305386Y0052649D01*
X0308627Y0052649D02*
X0310177Y0052649D01*
X0310177Y0054247D02*
X0308627Y0054247D01*
X0309402Y0057535D02*
X0319749Y0057535D01*
X0320119Y0057906D01*
X0320119Y0058906D01*
X0323119Y0061906D01*
X0365201Y0061906D01*
X0369201Y0065906D01*
X0369201Y0066217D01*
X0365457Y0069961D01*
X0364682Y0070233D02*
X0359383Y0070233D01*
X0360508Y0070735D02*
X0364682Y0070735D01*
X0364682Y0069186D01*
X0360508Y0069186D01*
X0360508Y0066180D01*
X0360630Y0065723D01*
X0360867Y0065312D01*
X0361202Y0064977D01*
X0361613Y0064740D01*
X0362071Y0064617D01*
X0364682Y0064617D01*
X0364682Y0069186D01*
X0366232Y0069186D01*
X0366232Y0070735D01*
X0370407Y0070735D01*
X0370407Y0073741D01*
X0370284Y0074199D01*
X0370047Y0074609D01*
X0369712Y0074944D01*
X0369302Y0075181D01*
X0368844Y0075304D01*
X0366232Y0075304D01*
X0366232Y0070736D01*
X0364682Y0070736D01*
X0364682Y0075304D01*
X0362071Y0075304D01*
X0361613Y0075181D01*
X0361202Y0074944D01*
X0360867Y0074609D01*
X0360630Y0074199D01*
X0360508Y0073741D01*
X0360508Y0070735D01*
X0360508Y0071831D02*
X0359383Y0071831D01*
X0359383Y0073430D02*
X0360508Y0073430D01*
X0359383Y0074250D02*
X0358329Y0075304D01*
X0350538Y0075304D01*
X0349484Y0074250D01*
X0349484Y0072261D01*
X0345436Y0072261D01*
X0345360Y0072443D01*
X0343940Y0073864D01*
X0342084Y0074633D01*
X0340075Y0074633D01*
X0338219Y0073864D01*
X0336798Y0072443D01*
X0336029Y0070587D01*
X0336029Y0068578D01*
X0336798Y0066722D01*
X0338219Y0065301D01*
X0340075Y0064533D01*
X0342084Y0064533D01*
X0343940Y0065301D01*
X0345360Y0066722D01*
X0345749Y0067661D01*
X0349484Y0067661D01*
X0349484Y0065672D01*
X0350538Y0064617D01*
X0358329Y0064617D01*
X0359383Y0065672D01*
X0359383Y0074250D01*
X0358605Y0075028D02*
X0361348Y0075028D01*
X0364682Y0075028D02*
X0366232Y0075028D01*
X0366232Y0073430D02*
X0364682Y0073430D01*
X0364682Y0071831D02*
X0366232Y0071831D01*
X0366232Y0070233D02*
X0392870Y0070233D01*
X0392870Y0071831D02*
X0370407Y0071831D01*
X0370407Y0073430D02*
X0392870Y0073430D01*
X0392870Y0075028D02*
X0369567Y0075028D01*
X0370407Y0069186D02*
X0366232Y0069186D01*
X0366232Y0064617D01*
X0368844Y0064617D01*
X0369302Y0064740D01*
X0369712Y0064977D01*
X0370047Y0065312D01*
X0370284Y0065723D01*
X0370407Y0066180D01*
X0370407Y0069186D01*
X0370407Y0068634D02*
X0392870Y0068634D01*
X0392870Y0067036D02*
X0370407Y0067036D01*
X0370119Y0065437D02*
X0392870Y0065437D01*
X0392870Y0063839D02*
X0313920Y0063839D01*
X0314745Y0065437D02*
X0318083Y0065437D01*
X0324075Y0065437D02*
X0338083Y0065437D01*
X0336668Y0067036D02*
X0325490Y0067036D01*
X0326129Y0068634D02*
X0336029Y0068634D01*
X0336029Y0070233D02*
X0326129Y0070233D01*
X0325614Y0071831D02*
X0336544Y0071831D01*
X0337784Y0073430D02*
X0324374Y0073430D01*
X0317784Y0073430D02*
X0313770Y0073430D01*
X0314745Y0071831D02*
X0316544Y0071831D01*
X0305034Y0073430D02*
X0276009Y0073430D01*
X0276009Y0075028D02*
X0350263Y0075028D01*
X0349484Y0073430D02*
X0344374Y0073430D01*
X0345490Y0067036D02*
X0349484Y0067036D01*
X0349719Y0065437D02*
X0344075Y0065437D01*
X0346222Y0059043D02*
X0392870Y0059043D01*
X0392870Y0057444D02*
X0347551Y0057444D01*
X0348937Y0055846D02*
X0380966Y0055846D01*
X0378150Y0054247D02*
X0350323Y0054247D01*
X0351709Y0052649D02*
X0376551Y0052649D01*
X0375466Y0051050D02*
X0353095Y0051050D01*
X0354481Y0049452D02*
X0374630Y0049452D01*
X0374201Y0047853D02*
X0355867Y0047853D01*
X0357253Y0046255D02*
X0373949Y0046255D01*
X0373949Y0044656D02*
X0358639Y0044656D01*
X0360025Y0043058D02*
X0367551Y0043058D01*
X0369001Y0043058D02*
X0369401Y0043058D01*
X0369401Y0043311D02*
X0369401Y0038011D01*
X0374701Y0038011D01*
X0374701Y0038244D01*
X0374566Y0039099D01*
X0374298Y0039922D01*
X0373905Y0040694D01*
X0373396Y0041394D01*
X0372784Y0042006D01*
X0372084Y0042515D01*
X0371313Y0042908D01*
X0370489Y0043176D01*
X0369634Y0043311D01*
X0369401Y0043311D01*
X0370851Y0043058D02*
X0374198Y0043058D01*
X0374626Y0041459D02*
X0373331Y0041459D01*
X0374318Y0039861D02*
X0375458Y0039861D01*
X0374698Y0038262D02*
X0376538Y0038262D01*
X0378136Y0036664D02*
X0374588Y0036664D01*
X0373975Y0035065D02*
X0380915Y0035065D01*
X0381119Y0029906D02*
X0373213Y0037811D01*
X0369201Y0037811D01*
X0369201Y0065906D01*
X0366232Y0065437D02*
X0364682Y0065437D01*
X0364682Y0067036D02*
X0366232Y0067036D01*
X0366232Y0068634D02*
X0364682Y0068634D01*
X0360508Y0068634D02*
X0359383Y0068634D01*
X0359383Y0067036D02*
X0360508Y0067036D01*
X0360795Y0065437D02*
X0359148Y0065437D01*
X0344234Y0054247D02*
X0325074Y0054247D01*
X0322943Y0052649D02*
X0345620Y0052649D01*
X0347007Y0051050D02*
X0321419Y0051050D01*
X0321419Y0049452D02*
X0331412Y0049452D01*
X0329814Y0047853D02*
X0320733Y0047853D01*
X0315504Y0047853D02*
X0283419Y0047853D01*
X0283419Y0046255D02*
X0328215Y0046255D01*
X0326617Y0044656D02*
X0283419Y0044656D01*
X0281938Y0043058D02*
X0325018Y0043058D01*
X0328327Y0039861D02*
X0347754Y0039861D01*
X0349068Y0038262D02*
X0329084Y0038262D01*
X0329925Y0041459D02*
X0346440Y0041459D01*
X0345126Y0043058D02*
X0331524Y0043058D01*
X0333122Y0044656D02*
X0343812Y0044656D01*
X0347139Y0047853D02*
X0349779Y0047853D01*
X0348453Y0046255D02*
X0351165Y0046255D01*
X0352551Y0044656D02*
X0349766Y0044656D01*
X0351080Y0043058D02*
X0353937Y0043058D01*
X0355323Y0041459D02*
X0352394Y0041459D01*
X0353708Y0039861D02*
X0356709Y0039861D01*
X0358095Y0038262D02*
X0355022Y0038262D01*
X0356336Y0036664D02*
X0359481Y0036664D01*
X0360867Y0035065D02*
X0357650Y0035065D01*
X0358964Y0033467D02*
X0362253Y0033467D01*
X0363639Y0031868D02*
X0360278Y0031868D01*
X0361592Y0030270D02*
X0365025Y0030270D01*
X0364701Y0028671D02*
X0362905Y0028671D01*
X0364219Y0027073D02*
X0364701Y0027073D01*
X0360893Y0023876D02*
X0345540Y0023876D01*
X0345540Y0022277D02*
X0362207Y0022277D01*
X0363521Y0020679D02*
X0345540Y0020679D01*
X0344638Y0019080D02*
X0363774Y0019080D01*
X0363701Y0017482D02*
X0343040Y0017482D01*
X0337040Y0017482D02*
X0333040Y0017482D01*
X0334638Y0019080D02*
X0335441Y0019080D01*
X0327040Y0017482D02*
X0323040Y0017482D01*
X0324638Y0019080D02*
X0325441Y0019080D01*
X0320040Y0022260D02*
X0335394Y0006906D01*
X0379119Y0006906D01*
X0381119Y0008906D01*
X0381119Y0029906D01*
X0375701Y0028671D02*
X0392870Y0028671D01*
X0392870Y0027073D02*
X0375701Y0027073D01*
X0375186Y0025474D02*
X0392870Y0025474D01*
X0392870Y0023876D02*
X0374044Y0023876D01*
X0372513Y0022277D02*
X0392870Y0022277D01*
X0392870Y0020679D02*
X0373967Y0020679D01*
X0374629Y0019080D02*
X0392870Y0019080D01*
X0392870Y0017482D02*
X0374701Y0017482D01*
X0374356Y0015883D02*
X0392870Y0015883D01*
X0392870Y0014285D02*
X0373453Y0014285D01*
X0371201Y0012686D02*
X0392870Y0012686D01*
X0392870Y0011088D02*
X0071745Y0011088D01*
X0071745Y0012686D02*
X0367202Y0012686D01*
X0364949Y0014285D02*
X0071744Y0014285D01*
X0071744Y0015883D02*
X0364047Y0015883D01*
X0359579Y0025474D02*
X0344604Y0025474D01*
X0343005Y0027073D02*
X0358265Y0027073D01*
X0356951Y0028671D02*
X0344229Y0028671D01*
X0345540Y0030270D02*
X0355637Y0030270D01*
X0354323Y0031868D02*
X0345540Y0031868D01*
X0345540Y0033467D02*
X0353009Y0033467D01*
X0351695Y0035065D02*
X0345013Y0035065D01*
X0343414Y0036664D02*
X0350381Y0036664D01*
X0361411Y0041459D02*
X0365071Y0041459D01*
X0364084Y0039861D02*
X0362797Y0039861D01*
X0369001Y0039861D02*
X0369401Y0039861D01*
X0369401Y0041459D02*
X0369001Y0041459D01*
X0369001Y0038262D02*
X0369401Y0038262D01*
X0372579Y0033467D02*
X0392870Y0033467D01*
X0392870Y0035065D02*
X0389180Y0035065D01*
X0391959Y0036664D02*
X0392870Y0036664D01*
X0392870Y0031868D02*
X0373922Y0031868D01*
X0375136Y0030270D02*
X0392870Y0030270D01*
X0392870Y0009489D02*
X0071745Y0009489D01*
X0071745Y0007891D02*
X0392870Y0007891D01*
X0392870Y0006292D02*
X0071745Y0006292D01*
X0071740Y0070233D02*
X0236649Y0070233D01*
X0236649Y0071831D02*
X0071740Y0071831D01*
X0071739Y0083021D02*
X0194337Y0083021D01*
X0192819Y0084619D02*
X0071739Y0084619D01*
X0071739Y0086218D02*
X0192819Y0086218D01*
X0193362Y0087816D02*
X0071739Y0087816D01*
X0071739Y0089415D02*
X0129357Y0089415D01*
X0127758Y0091013D02*
X0071739Y0091013D01*
X0071739Y0092612D02*
X0126160Y0092612D01*
X0124561Y0094210D02*
X0071739Y0094210D01*
X0071739Y0095809D02*
X0122963Y0095809D01*
X0121364Y0097407D02*
X0080457Y0097407D01*
X0081092Y0099006D02*
X0119766Y0099006D01*
X0118167Y0100604D02*
X0081092Y0100604D01*
X0081092Y0102203D02*
X0115154Y0102203D01*
X0114819Y0103801D02*
X0081092Y0103801D01*
X0081092Y0105400D02*
X0114946Y0105400D01*
X0116545Y0106998D02*
X0081092Y0106998D01*
X0081092Y0108597D02*
X0117742Y0108597D01*
X0116143Y0110195D02*
X0081092Y0110195D01*
X0080642Y0111794D02*
X0114545Y0111794D01*
X0112946Y0113392D02*
X0071737Y0113392D01*
X0071737Y0114991D02*
X0096842Y0114991D01*
X0097129Y0114704D02*
X0096074Y0115758D01*
X0096074Y0125124D01*
X0097129Y0126178D01*
X0101770Y0126178D01*
X0102824Y0125124D01*
X0102824Y0115758D01*
X0101770Y0114704D01*
X0097129Y0114704D01*
X0096074Y0116589D02*
X0071737Y0116589D01*
X0071737Y0118188D02*
X0096074Y0118188D01*
X0096074Y0119786D02*
X0071737Y0119786D01*
X0071737Y0121385D02*
X0096074Y0121385D01*
X0096074Y0122983D02*
X0071737Y0122983D01*
X0071736Y0124582D02*
X0096074Y0124582D01*
X0102824Y0124582D02*
X0105917Y0124582D01*
X0105917Y0122983D02*
X0102824Y0122983D01*
X0102824Y0121385D02*
X0105917Y0121385D01*
X0105917Y0119786D02*
X0102824Y0119786D01*
X0102824Y0118188D02*
X0105917Y0118188D01*
X0105917Y0116589D02*
X0102824Y0116589D01*
X0102057Y0114991D02*
X0106684Y0114991D01*
X0113340Y0119786D02*
X0115760Y0119786D01*
X0115760Y0118188D02*
X0114939Y0118188D01*
X0115760Y0121385D02*
X0112667Y0121385D01*
X0112667Y0122983D02*
X0115760Y0122983D01*
X0115760Y0124582D02*
X0112667Y0124582D01*
X0104119Y0127906D02*
X0130119Y0127906D01*
X0132119Y0126906D01*
X0132119Y0120449D01*
X0132126Y0120441D01*
X0131583Y0120984D01*
X0131583Y0148717D01*
X0131783Y0148917D02*
X0131383Y0148917D01*
X0131383Y0154217D01*
X0131150Y0154217D01*
X0130687Y0154143D01*
X0133049Y0156506D01*
X0146119Y0156506D01*
X0143493Y0153879D01*
X0142677Y0154217D01*
X0140489Y0154217D01*
X0138468Y0153379D01*
X0136920Y0151832D01*
X0136583Y0151018D01*
X0136287Y0151599D01*
X0135778Y0152300D01*
X0135166Y0152912D01*
X0134466Y0153421D01*
X0133694Y0153814D01*
X0132871Y0154081D01*
X0132016Y0154217D01*
X0131783Y0154217D01*
X0131783Y0148917D01*
X0131783Y0148516D02*
X0131783Y0143217D01*
X0132016Y0143217D01*
X0132871Y0143352D01*
X0133694Y0143619D01*
X0134466Y0144013D01*
X0135166Y0144521D01*
X0135778Y0145134D01*
X0136287Y0145834D01*
X0136583Y0146415D01*
X0136920Y0145601D01*
X0138468Y0144054D01*
X0140489Y0143217D01*
X0142677Y0143217D01*
X0144699Y0144054D01*
X0146246Y0145601D01*
X0146583Y0146415D01*
X0146879Y0145834D01*
X0147388Y0145134D01*
X0148000Y0144521D01*
X0148701Y0144013D01*
X0149472Y0143619D01*
X0150295Y0143352D01*
X0151150Y0143217D01*
X0151383Y0143217D01*
X0151383Y0148516D01*
X0151783Y0148516D01*
X0151783Y0143217D01*
X0152016Y0143217D01*
X0152871Y0143352D01*
X0153694Y0143619D01*
X0154466Y0144013D01*
X0155166Y0144521D01*
X0155778Y0145134D01*
X0156287Y0145834D01*
X0156583Y0146415D01*
X0156920Y0145601D01*
X0158468Y0144054D01*
X0160489Y0143217D01*
X0162374Y0143217D01*
X0172628Y0132205D01*
X0172583Y0132205D01*
X0170795Y0134173D02*
X0140518Y0134173D01*
X0138119Y0131906D02*
X0138819Y0131205D01*
X0138819Y0120441D01*
X0132127Y0119786D02*
X0132126Y0119786D01*
X0132126Y0118188D02*
X0132127Y0118188D01*
X0132126Y0116589D02*
X0132127Y0116589D01*
X0132126Y0114991D02*
X0132127Y0114991D01*
X0134681Y0114991D02*
X0136212Y0114991D01*
X0129572Y0114991D02*
X0127978Y0114991D01*
X0128752Y0116589D02*
X0126380Y0116589D01*
X0124781Y0118188D02*
X0128752Y0118188D01*
X0128752Y0119786D02*
X0123183Y0119786D01*
X0122509Y0121385D02*
X0128752Y0121385D01*
X0128752Y0122983D02*
X0122509Y0122983D01*
X0122509Y0124582D02*
X0128752Y0124582D01*
X0132126Y0124582D02*
X0132127Y0124582D01*
X0132126Y0122983D02*
X0132127Y0122983D01*
X0132126Y0121385D02*
X0132127Y0121385D01*
X0136219Y0126180D02*
X0071736Y0126180D01*
X0071736Y0127779D02*
X0136219Y0127779D01*
X0135980Y0129377D02*
X0071736Y0129377D01*
X0071736Y0130976D02*
X0134819Y0130976D01*
X0134819Y0132575D02*
X0071736Y0132575D01*
X0071736Y0134173D02*
X0135719Y0134173D01*
X0133978Y0143764D02*
X0139167Y0143764D01*
X0137159Y0145363D02*
X0135945Y0145363D01*
X0131783Y0145363D02*
X0131383Y0145363D01*
X0131383Y0146961D02*
X0131783Y0146961D01*
X0131783Y0148516D02*
X0131383Y0148516D01*
X0131383Y0143217D01*
X0131150Y0143217D01*
X0130295Y0143352D01*
X0129472Y0143619D01*
X0128701Y0144013D01*
X0128000Y0144521D01*
X0127388Y0145134D01*
X0126879Y0145834D01*
X0126583Y0146415D01*
X0126246Y0145601D01*
X0124699Y0144054D01*
X0122677Y0143217D01*
X0120489Y0143217D01*
X0118468Y0144054D01*
X0116920Y0145601D01*
X0116083Y0147623D01*
X0116083Y0149811D01*
X0116920Y0151832D01*
X0118468Y0153379D01*
X0120489Y0154217D01*
X0122677Y0154217D01*
X0123193Y0154003D01*
X0128519Y0159329D01*
X0128519Y0162682D01*
X0128153Y0162833D01*
X0126606Y0164381D01*
X0126268Y0165195D01*
X0125972Y0164613D01*
X0125463Y0163913D01*
X0124851Y0163301D01*
X0124151Y0162792D01*
X0123379Y0162399D01*
X0122556Y0162131D01*
X0121701Y0161996D01*
X0121468Y0161996D01*
X0121468Y0167296D01*
X0121068Y0167296D01*
X0115768Y0167296D01*
X0115768Y0167063D01*
X0115904Y0166208D01*
X0116171Y0165385D01*
X0116564Y0164613D01*
X0117073Y0163913D01*
X0117685Y0163301D01*
X0118386Y0162792D01*
X0119157Y0162399D01*
X0119980Y0162131D01*
X0120835Y0161996D01*
X0121068Y0161996D01*
X0121068Y0167296D01*
X0121068Y0167696D01*
X0115768Y0167696D01*
X0115768Y0167929D01*
X0115904Y0168784D01*
X0116171Y0169607D01*
X0116564Y0170379D01*
X0117073Y0171079D01*
X0117685Y0171691D01*
X0118386Y0172200D01*
X0119157Y0172593D01*
X0119980Y0172861D01*
X0120835Y0172996D01*
X0121068Y0172996D01*
X0121068Y0167696D01*
X0121468Y0167696D01*
X0121468Y0172996D01*
X0121701Y0172996D01*
X0122556Y0172861D01*
X0123379Y0172593D01*
X0124151Y0172200D01*
X0124851Y0171691D01*
X0125463Y0171079D01*
X0125972Y0170379D01*
X0126268Y0169797D01*
X0126606Y0170612D01*
X0128153Y0172159D01*
X0128519Y0172310D01*
X0128519Y0179423D01*
X0128914Y0180378D01*
X0129646Y0181110D01*
X0135511Y0186975D01*
X0135511Y0193874D01*
X0133665Y0193874D01*
X0132611Y0194928D01*
X0132611Y0196096D01*
X0131226Y0194711D01*
X0129205Y0193874D01*
X0127017Y0193874D01*
X0124995Y0194711D01*
X0123448Y0196259D01*
X0123111Y0197073D01*
X0122815Y0196491D01*
X0122306Y0195791D01*
X0121694Y0195179D01*
X0120993Y0194670D01*
X0120222Y0194277D01*
X0119399Y0194009D01*
X0118544Y0193874D01*
X0118311Y0193874D01*
X0118311Y0199174D01*
X0117911Y0199174D01*
X0117911Y0193874D01*
X0117678Y0193874D01*
X0116823Y0194009D01*
X0115999Y0194277D01*
X0115228Y0194670D01*
X0114528Y0195179D01*
X0113916Y0195791D01*
X0113407Y0196491D01*
X0113014Y0197263D01*
X0112746Y0198086D01*
X0112611Y0198941D01*
X0112611Y0199174D01*
X0117911Y0199174D01*
X0117911Y0199574D01*
X0117911Y0204874D01*
X0117678Y0204874D01*
X0116823Y0204739D01*
X0115999Y0204471D01*
X0115228Y0204078D01*
X0114528Y0203569D01*
X0113916Y0202957D01*
X0113407Y0202257D01*
X0113014Y0201485D01*
X0112746Y0200662D01*
X0112611Y0199807D01*
X0112611Y0199574D01*
X0117911Y0199574D01*
X0118311Y0199574D01*
X0118311Y0204874D01*
X0118544Y0204874D01*
X0119399Y0204739D01*
X0120222Y0204471D01*
X0120993Y0204078D01*
X0121694Y0203569D01*
X0122306Y0202957D01*
X0122815Y0202257D01*
X0123111Y0201675D01*
X0123448Y0202490D01*
X0124995Y0204037D01*
X0127017Y0204874D01*
X0129205Y0204874D01*
X0131226Y0204037D01*
X0132611Y0202652D01*
X0132611Y0203820D01*
X0133665Y0204874D01*
X0142556Y0204874D01*
X0143611Y0203820D01*
X0143611Y0194928D01*
X0142556Y0193874D01*
X0140711Y0193874D01*
X0140711Y0185380D01*
X0140315Y0184425D01*
X0133719Y0177829D01*
X0133719Y0172434D01*
X0134384Y0172159D01*
X0135931Y0170612D01*
X0136268Y0169797D01*
X0136606Y0170612D01*
X0138153Y0172159D01*
X0140174Y0172996D01*
X0142362Y0172996D01*
X0144384Y0172159D01*
X0145931Y0170612D01*
X0146268Y0169797D01*
X0146606Y0170612D01*
X0148153Y0172159D01*
X0150174Y0172996D01*
X0152362Y0172996D01*
X0154384Y0172159D01*
X0155931Y0170612D01*
X0156268Y0169797D01*
X0156606Y0170612D01*
X0158153Y0172159D01*
X0160174Y0172996D01*
X0162362Y0172996D01*
X0164384Y0172159D01*
X0165931Y0170612D01*
X0166268Y0169797D01*
X0166606Y0170612D01*
X0168153Y0172159D01*
X0170174Y0172996D01*
X0172362Y0172996D01*
X0174384Y0172159D01*
X0175931Y0170612D01*
X0176268Y0169797D01*
X0176606Y0170612D01*
X0178153Y0172159D01*
X0180174Y0172996D01*
X0182362Y0172996D01*
X0184384Y0172159D01*
X0185931Y0170612D01*
X0186268Y0169797D01*
X0186606Y0170612D01*
X0188153Y0172159D01*
X0190174Y0172996D01*
X0192362Y0172996D01*
X0194384Y0172159D01*
X0195931Y0170612D01*
X0196268Y0169797D01*
X0196606Y0170612D01*
X0198153Y0172159D01*
X0200174Y0172996D01*
X0202362Y0172996D01*
X0204384Y0172159D01*
X0205931Y0170612D01*
X0206268Y0169797D01*
X0206606Y0170612D01*
X0208153Y0172159D01*
X0210174Y0172996D01*
X0212362Y0172996D01*
X0214384Y0172159D01*
X0215931Y0170612D01*
X0216268Y0169797D01*
X0216606Y0170612D01*
X0218153Y0172159D01*
X0220174Y0172996D01*
X0222362Y0172996D01*
X0224384Y0172159D01*
X0225931Y0170612D01*
X0226268Y0169797D01*
X0226606Y0170612D01*
X0228153Y0172159D01*
X0230174Y0172996D01*
X0232362Y0172996D01*
X0234384Y0172159D01*
X0235931Y0170612D01*
X0236268Y0169797D01*
X0236606Y0170612D01*
X0238153Y0172159D01*
X0240174Y0172996D01*
X0242362Y0172996D01*
X0244384Y0172159D01*
X0245931Y0170612D01*
X0246268Y0169797D01*
X0246606Y0170612D01*
X0248153Y0172159D01*
X0250174Y0172996D01*
X0252362Y0172996D01*
X0254384Y0172159D01*
X0255931Y0170612D01*
X0256268Y0169797D01*
X0256606Y0170612D01*
X0258153Y0172159D01*
X0260174Y0172996D01*
X0262362Y0172996D01*
X0264384Y0172159D01*
X0265931Y0170612D01*
X0266268Y0169797D01*
X0266606Y0170612D01*
X0268153Y0172159D01*
X0270174Y0172996D01*
X0272362Y0172996D01*
X0274384Y0172159D01*
X0275931Y0170612D01*
X0276768Y0168590D01*
X0276768Y0166402D01*
X0275931Y0164381D01*
X0274384Y0162833D01*
X0272362Y0161996D01*
X0270174Y0161996D01*
X0268153Y0162833D01*
X0266606Y0164381D01*
X0266268Y0165195D01*
X0265931Y0164381D01*
X0265484Y0163934D01*
X0268113Y0161305D01*
X0268486Y0161305D01*
X0268532Y0161286D01*
X0268582Y0161284D01*
X0268971Y0161104D01*
X0269368Y0160940D01*
X0269403Y0160905D01*
X0269449Y0160884D01*
X0269740Y0160568D01*
X0270043Y0160265D01*
X0270062Y0160219D01*
X0301174Y0126492D01*
X0301217Y0126535D01*
X0302834Y0127205D01*
X0304584Y0127205D01*
X0306202Y0126535D01*
X0307439Y0125297D01*
X0308109Y0123680D01*
X0308109Y0122605D01*
X0309309Y0122605D01*
X0309309Y0123680D01*
X0309979Y0125297D01*
X0311217Y0126535D01*
X0312834Y0127205D01*
X0314584Y0127205D01*
X0316202Y0126535D01*
X0317439Y0125297D01*
X0318109Y0123680D01*
X0318109Y0116730D01*
X0317439Y0115112D01*
X0316202Y0113875D01*
X0314584Y0113205D01*
X0312834Y0113205D01*
X0311217Y0113875D01*
X0309979Y0115112D01*
X0309309Y0116730D01*
X0309309Y0117805D01*
X0308109Y0117805D01*
X0308109Y0116730D01*
X0307439Y0115112D01*
X0306202Y0113875D01*
X0306109Y0113836D01*
X0306109Y0103361D01*
X0306151Y0103042D01*
X0306109Y0102887D01*
X0306109Y0102727D01*
X0305986Y0102430D01*
X0305902Y0102120D01*
X0305805Y0101993D01*
X0305744Y0101845D01*
X0305516Y0101618D01*
X0301779Y0096760D01*
X0302020Y0096882D01*
X0302679Y0097096D01*
X0303363Y0097205D01*
X0303709Y0097205D01*
X0303709Y0090205D01*
X0303709Y0090205D01*
X0303709Y0090205D01*
X0299309Y0090205D01*
X0299309Y0093151D01*
X0299388Y0093652D01*
X0298109Y0091988D01*
X0298109Y0086730D01*
X0297439Y0085112D01*
X0296202Y0083875D01*
X0294584Y0083205D01*
X0292834Y0083205D01*
X0291217Y0083875D01*
X0289979Y0085112D01*
X0289309Y0086730D01*
X0289309Y0093680D01*
X0289979Y0095297D01*
X0291217Y0096535D01*
X0292834Y0097205D01*
X0294584Y0097205D01*
X0295708Y0096739D01*
X0301309Y0104021D01*
X0301309Y0113836D01*
X0301217Y0113875D01*
X0299979Y0115112D01*
X0299309Y0116730D01*
X0299309Y0121435D01*
X0298109Y0122736D01*
X0298109Y0120205D01*
X0293709Y0120205D01*
X0293709Y0127205D01*
X0293363Y0127205D01*
X0292679Y0127096D01*
X0292020Y0126882D01*
X0291403Y0126568D01*
X0290843Y0126161D01*
X0290353Y0125671D01*
X0289946Y0125111D01*
X0289631Y0124494D01*
X0289417Y0123835D01*
X0289309Y0123151D01*
X0289309Y0120205D01*
X0293709Y0120205D01*
X0293709Y0120205D01*
X0293709Y0120205D01*
X0293709Y0127205D01*
X0293987Y0127205D01*
X0266957Y0156506D01*
X0262771Y0156506D01*
X0263419Y0155858D01*
X0283071Y0136205D01*
X0284485Y0136205D01*
X0286419Y0134272D01*
X0286419Y0131539D01*
X0284485Y0129606D01*
X0281752Y0129606D01*
X0279819Y0131539D01*
X0279819Y0132953D01*
X0260166Y0152606D01*
X0259166Y0152606D01*
X0258166Y0153606D01*
X0194152Y0153606D01*
X0194699Y0153379D01*
X0196246Y0151832D01*
X0197083Y0149811D01*
X0197083Y0147623D01*
X0196246Y0145601D01*
X0194699Y0144054D01*
X0192677Y0143217D01*
X0190489Y0143217D01*
X0188468Y0144054D01*
X0186920Y0145601D01*
X0186583Y0146415D01*
X0186287Y0145834D01*
X0185778Y0145134D01*
X0185166Y0144521D01*
X0184466Y0144013D01*
X0183694Y0143619D01*
X0182871Y0143352D01*
X0182016Y0143217D01*
X0181783Y0143217D01*
X0181783Y0148516D01*
X0181383Y0148516D01*
X0181383Y0143217D01*
X0181150Y0143217D01*
X0180295Y0143352D01*
X0179472Y0143619D01*
X0178701Y0144013D01*
X0178000Y0144521D01*
X0177388Y0145134D01*
X0176879Y0145834D01*
X0176583Y0146415D01*
X0176246Y0145601D01*
X0174699Y0144054D01*
X0173883Y0143716D01*
X0173883Y0142263D01*
X0177208Y0138205D01*
X0204378Y0138205D01*
X0204448Y0139176D01*
X0203239Y0139176D01*
X0202185Y0140231D01*
X0202185Y0148809D01*
X0203239Y0149863D01*
X0211030Y0149863D01*
X0212084Y0148809D01*
X0212084Y0140231D01*
X0211030Y0139176D01*
X0209059Y0139176D01*
X0208820Y0135824D01*
X0208820Y0135205D01*
X0211752Y0135205D01*
X0212752Y0136205D01*
X0215485Y0136205D01*
X0217419Y0134272D01*
X0217419Y0131539D01*
X0215485Y0129606D01*
X0212752Y0129606D01*
X0211752Y0130606D01*
X0195671Y0130606D01*
X0212071Y0114205D01*
X0230886Y0114205D01*
X0229979Y0115112D01*
X0229309Y0116730D01*
X0229309Y0123680D01*
X0229979Y0125297D01*
X0231217Y0126535D01*
X0232834Y0127205D01*
X0234584Y0127205D01*
X0235905Y0126657D01*
X0243110Y0135709D01*
X0243110Y0135858D01*
X0243691Y0136440D01*
X0244204Y0137083D01*
X0244352Y0137100D01*
X0244457Y0137205D01*
X0245280Y0137205D01*
X0246097Y0137298D01*
X0246214Y0137205D01*
X0256152Y0137205D01*
X0255819Y0137539D01*
X0255819Y0140272D01*
X0256159Y0140613D01*
X0254166Y0142606D01*
X0227048Y0142606D01*
X0227031Y0142589D01*
X0226098Y0142606D01*
X0225166Y0142606D01*
X0225149Y0142622D01*
X0223108Y0142657D01*
X0223108Y0140231D01*
X0222053Y0139176D01*
X0214263Y0139176D01*
X0213208Y0140231D01*
X0213208Y0148809D01*
X0214263Y0149863D01*
X0222053Y0149863D01*
X0223108Y0148809D01*
X0223108Y0147258D01*
X0226139Y0147205D01*
X0256071Y0147205D01*
X0257419Y0145858D01*
X0261419Y0141858D01*
X0261419Y0141272D01*
X0262419Y0140272D01*
X0262419Y0137539D01*
X0262085Y0137205D01*
X0262752Y0137205D01*
X0263752Y0138205D01*
X0266485Y0138205D01*
X0268419Y0136272D01*
X0268419Y0133539D01*
X0266485Y0131606D01*
X0263752Y0131606D01*
X0262752Y0132606D01*
X0246519Y0132606D01*
X0241918Y0126825D01*
X0242834Y0127205D01*
X0244584Y0127205D01*
X0246202Y0126535D01*
X0247439Y0125297D01*
X0248109Y0123680D01*
X0248109Y0116730D01*
X0247439Y0115112D01*
X0246532Y0114205D01*
X0250886Y0114205D01*
X0249979Y0115112D01*
X0249309Y0116730D01*
X0249309Y0123680D01*
X0249979Y0125297D01*
X0251217Y0126535D01*
X0252834Y0127205D01*
X0254584Y0127205D01*
X0256202Y0126535D01*
X0257439Y0125297D01*
X0258109Y0123680D01*
X0258109Y0116730D01*
X0257439Y0115112D01*
X0256532Y0114205D01*
X0260886Y0114205D01*
X0259979Y0115112D01*
X0259309Y0116730D01*
X0259309Y0123680D01*
X0259979Y0125297D01*
X0261217Y0126535D01*
X0262834Y0127205D01*
X0264584Y0127205D01*
X0266202Y0126535D01*
X0267439Y0125297D01*
X0268109Y0123680D01*
X0268109Y0116730D01*
X0267439Y0115112D01*
X0266532Y0114205D01*
X0270886Y0114205D01*
X0269979Y0115112D01*
X0269309Y0116730D01*
X0269309Y0123680D01*
X0269979Y0125297D01*
X0271217Y0126535D01*
X0272834Y0127205D01*
X0274584Y0127205D01*
X0276202Y0126535D01*
X0277439Y0125297D01*
X0278109Y0123680D01*
X0278109Y0116730D01*
X0277439Y0115112D01*
X0276532Y0114205D01*
X0280886Y0114205D01*
X0279979Y0115112D01*
X0279309Y0116730D01*
X0279309Y0123680D01*
X0279979Y0125297D01*
X0281217Y0126535D01*
X0282834Y0127205D01*
X0284584Y0127205D01*
X0286202Y0126535D01*
X0287439Y0125297D01*
X0288109Y0123680D01*
X0288109Y0116730D01*
X0287478Y0115205D01*
X0289485Y0115205D01*
X0291419Y0113272D01*
X0291419Y0110539D01*
X0289485Y0108606D01*
X0286752Y0108606D01*
X0285752Y0109606D01*
X0282085Y0109606D01*
X0282419Y0109272D01*
X0282419Y0106539D01*
X0282185Y0106305D01*
X0293852Y0106305D01*
X0294752Y0107205D01*
X0297485Y0107205D01*
X0299419Y0105272D01*
X0299419Y0102539D01*
X0297485Y0100606D01*
X0294752Y0100606D01*
X0293852Y0101506D01*
X0288185Y0101506D01*
X0288419Y0101272D01*
X0288419Y0098539D01*
X0286485Y0096606D01*
X0286031Y0096606D01*
X0286202Y0096535D01*
X0287439Y0095297D01*
X0288109Y0093680D01*
X0288109Y0086730D01*
X0287439Y0085112D01*
X0286202Y0083875D01*
X0284584Y0083205D01*
X0282834Y0083205D01*
X0281217Y0083875D01*
X0279979Y0085112D01*
X0279309Y0086730D01*
X0279309Y0093680D01*
X0279979Y0095297D01*
X0281217Y0096535D01*
X0282834Y0097205D01*
X0283152Y0097205D01*
X0282852Y0097506D01*
X0232065Y0097506D01*
X0217786Y0084179D01*
X0217478Y0083871D01*
X0217438Y0083854D01*
X0217407Y0083825D01*
X0216999Y0083672D01*
X0216596Y0083506D01*
X0216553Y0083506D01*
X0216513Y0083490D01*
X0216077Y0083506D01*
X0218258Y0084619D02*
X0230472Y0084619D01*
X0229521Y0086218D02*
X0219970Y0086218D01*
X0221683Y0087816D02*
X0229309Y0087816D01*
X0229309Y0089415D02*
X0223396Y0089415D01*
X0225109Y0091013D02*
X0229309Y0091013D01*
X0229309Y0092612D02*
X0226821Y0092612D01*
X0228534Y0094210D02*
X0229529Y0094210D01*
X0230247Y0095809D02*
X0230491Y0095809D01*
X0231959Y0097407D02*
X0282950Y0097407D01*
X0280491Y0095809D02*
X0276928Y0095809D01*
X0277889Y0094210D02*
X0279529Y0094210D01*
X0279309Y0092612D02*
X0278109Y0092612D01*
X0278109Y0091013D02*
X0279309Y0091013D01*
X0279309Y0089415D02*
X0278109Y0089415D01*
X0278109Y0087816D02*
X0279309Y0087816D01*
X0279521Y0086218D02*
X0277897Y0086218D01*
X0276946Y0084619D02*
X0280472Y0084619D01*
X0276009Y0083021D02*
X0392870Y0083021D01*
X0392870Y0084619D02*
X0366946Y0084619D01*
X0367439Y0085112D02*
X0368109Y0086730D01*
X0368109Y0093680D01*
X0367439Y0095297D01*
X0366202Y0096535D01*
X0364584Y0097205D01*
X0362949Y0097205D01*
X0377796Y0114039D01*
X0378419Y0114661D01*
X0378419Y0114745D01*
X0378474Y0114807D01*
X0378419Y0115686D01*
X0378419Y0139858D01*
X0377071Y0141205D01*
X0369071Y0149205D01*
X0358071Y0149205D01*
X0341071Y0166205D01*
X0320071Y0166205D01*
X0311419Y0174858D01*
X0311419Y0175539D01*
X0312419Y0176539D01*
X0312419Y0179272D01*
X0310485Y0181205D01*
X0307752Y0181205D01*
X0305819Y0179272D01*
X0305819Y0176539D01*
X0306819Y0175539D01*
X0306819Y0175458D01*
X0293419Y0188858D01*
X0292071Y0190205D01*
X0275071Y0190205D01*
X0269419Y0195858D01*
X0269419Y0197272D01*
X0267485Y0199205D01*
X0264752Y0199205D01*
X0262819Y0197272D01*
X0262819Y0196458D01*
X0261578Y0197698D01*
X0262419Y0198539D01*
X0262419Y0201272D01*
X0260485Y0203205D01*
X0257752Y0203205D01*
X0255819Y0201272D01*
X0255819Y0198539D01*
X0256819Y0197539D01*
X0256819Y0195953D01*
X0258659Y0194113D01*
X0256819Y0192272D01*
X0256819Y0189539D01*
X0258752Y0187606D01*
X0260378Y0187606D01*
X0268925Y0180045D01*
X0269520Y0179425D01*
X0269628Y0179423D01*
X0269708Y0179352D01*
X0270566Y0179404D01*
X0285161Y0179112D01*
X0284619Y0178718D01*
X0283991Y0178091D01*
X0283469Y0177373D01*
X0283066Y0176582D01*
X0282792Y0175738D01*
X0282659Y0174897D01*
X0287812Y0174897D01*
X0287812Y0173938D01*
X0282659Y0173938D01*
X0282792Y0173097D01*
X0283066Y0172253D01*
X0283469Y0171462D01*
X0283991Y0170744D01*
X0284619Y0170116D01*
X0285337Y0169595D01*
X0286127Y0169192D01*
X0286971Y0168918D01*
X0287812Y0168784D01*
X0287812Y0173938D01*
X0288771Y0173938D01*
X0288771Y0168784D01*
X0289612Y0168918D01*
X0290456Y0169192D01*
X0291247Y0169595D01*
X0291965Y0170116D01*
X0292593Y0170744D01*
X0293114Y0171462D01*
X0293517Y0172253D01*
X0293792Y0173097D01*
X0293925Y0173938D01*
X0288771Y0173938D01*
X0288771Y0174897D01*
X0293461Y0174897D01*
X0325819Y0141030D01*
X0325819Y0139539D01*
X0327752Y0137606D01*
X0330485Y0137606D01*
X0332326Y0139446D01*
X0333819Y0137953D01*
X0333819Y0136567D01*
X0324456Y0127205D01*
X0322834Y0127205D01*
X0321217Y0126535D01*
X0319979Y0125297D01*
X0319309Y0123680D01*
X0319309Y0116730D01*
X0319979Y0115112D01*
X0321217Y0113875D01*
X0321719Y0113667D01*
X0321719Y0109900D01*
X0314822Y0103003D01*
X0314721Y0102970D01*
X0314485Y0103205D01*
X0311752Y0103205D01*
X0309819Y0101272D01*
X0309819Y0098539D01*
X0311645Y0096712D01*
X0311217Y0096535D01*
X0309979Y0095297D01*
X0309309Y0093680D01*
X0309309Y0086730D01*
X0309979Y0085112D01*
X0311217Y0083875D01*
X0312834Y0083205D01*
X0314584Y0083205D01*
X0316202Y0083875D01*
X0317439Y0085112D01*
X0318109Y0086730D01*
X0318109Y0093680D01*
X0317439Y0095297D01*
X0316202Y0096535D01*
X0314938Y0097058D01*
X0316324Y0098444D01*
X0316508Y0098506D01*
X0316596Y0098506D01*
X0316958Y0098656D01*
X0317330Y0098780D01*
X0317397Y0098837D01*
X0317478Y0098871D01*
X0317755Y0099148D01*
X0318052Y0099405D01*
X0318091Y0099484D01*
X0325478Y0106871D01*
X0326153Y0107546D01*
X0326519Y0108428D01*
X0326519Y0114192D01*
X0327439Y0115112D01*
X0328109Y0116730D01*
X0328109Y0123680D01*
X0327912Y0124155D01*
X0338419Y0134661D01*
X0338419Y0139858D01*
X0337071Y0141205D01*
X0327671Y0150606D01*
X0344166Y0150606D01*
X0351409Y0143362D01*
X0351409Y0126615D01*
X0351217Y0126535D01*
X0349979Y0125297D01*
X0349309Y0123680D01*
X0349309Y0116730D01*
X0349979Y0115112D01*
X0351217Y0113875D01*
X0352834Y0113205D01*
X0354584Y0113205D01*
X0356202Y0113875D01*
X0357439Y0115112D01*
X0358109Y0116730D01*
X0358109Y0123680D01*
X0357439Y0125297D01*
X0356202Y0126535D01*
X0356009Y0126615D01*
X0356009Y0144762D01*
X0356166Y0144606D01*
X0367166Y0144606D01*
X0373819Y0137953D01*
X0373819Y0116484D01*
X0356214Y0096522D01*
X0356202Y0096535D01*
X0354584Y0097205D01*
X0352834Y0097205D01*
X0351217Y0096535D01*
X0349979Y0095297D01*
X0349309Y0093680D01*
X0349309Y0086730D01*
X0349979Y0085112D01*
X0351217Y0083875D01*
X0352834Y0083205D01*
X0354584Y0083205D01*
X0356202Y0083875D01*
X0357439Y0085112D01*
X0358109Y0086730D01*
X0358109Y0091717D01*
X0359309Y0093077D01*
X0359309Y0086730D01*
X0359979Y0085112D01*
X0361217Y0083875D01*
X0362834Y0083205D01*
X0364584Y0083205D01*
X0366202Y0083875D01*
X0367439Y0085112D01*
X0367897Y0086218D02*
X0392870Y0086218D01*
X0392870Y0087816D02*
X0368109Y0087816D01*
X0368109Y0089415D02*
X0392870Y0089415D01*
X0392870Y0091013D02*
X0368109Y0091013D01*
X0368109Y0092612D02*
X0392870Y0092612D01*
X0392870Y0094210D02*
X0367889Y0094210D01*
X0366928Y0095809D02*
X0392870Y0095809D01*
X0392870Y0097407D02*
X0363128Y0097407D01*
X0364538Y0099006D02*
X0392870Y0099006D01*
X0392870Y0100604D02*
X0365948Y0100604D01*
X0367357Y0102203D02*
X0392870Y0102203D01*
X0392870Y0103801D02*
X0368767Y0103801D01*
X0370177Y0105400D02*
X0392870Y0105400D01*
X0392870Y0106998D02*
X0371587Y0106998D01*
X0372996Y0108597D02*
X0392870Y0108597D01*
X0392870Y0110195D02*
X0374406Y0110195D01*
X0375816Y0111794D02*
X0392870Y0111794D01*
X0392870Y0113392D02*
X0377226Y0113392D01*
X0378462Y0114991D02*
X0392870Y0114991D01*
X0392870Y0116589D02*
X0378419Y0116589D01*
X0378419Y0118188D02*
X0392870Y0118188D01*
X0392870Y0119786D02*
X0378419Y0119786D01*
X0378419Y0121385D02*
X0392870Y0121385D01*
X0392870Y0122983D02*
X0378419Y0122983D01*
X0378419Y0124582D02*
X0392870Y0124582D01*
X0392870Y0126180D02*
X0378419Y0126180D01*
X0378419Y0127779D02*
X0392870Y0127779D01*
X0392870Y0129377D02*
X0378419Y0129377D01*
X0378419Y0130976D02*
X0392870Y0130976D01*
X0392870Y0132575D02*
X0378419Y0132575D01*
X0378419Y0134173D02*
X0392870Y0134173D01*
X0392870Y0135772D02*
X0378419Y0135772D01*
X0378419Y0137370D02*
X0392870Y0137370D01*
X0392870Y0138969D02*
X0378419Y0138969D01*
X0377710Y0140567D02*
X0392870Y0140567D01*
X0392870Y0142166D02*
X0376111Y0142166D01*
X0374513Y0143764D02*
X0392870Y0143764D01*
X0392870Y0145363D02*
X0372914Y0145363D01*
X0371316Y0146961D02*
X0392870Y0146961D01*
X0392870Y0148560D02*
X0369717Y0148560D01*
X0368007Y0143764D02*
X0356009Y0143764D01*
X0356009Y0142166D02*
X0369606Y0142166D01*
X0371204Y0140567D02*
X0356009Y0140567D01*
X0356009Y0138969D02*
X0372803Y0138969D01*
X0373819Y0137370D02*
X0356009Y0137370D01*
X0356009Y0135772D02*
X0373819Y0135772D01*
X0373819Y0134173D02*
X0356009Y0134173D01*
X0356009Y0132575D02*
X0373819Y0132575D01*
X0373819Y0130976D02*
X0356009Y0130976D01*
X0356009Y0129377D02*
X0373819Y0129377D01*
X0373819Y0127779D02*
X0356009Y0127779D01*
X0356556Y0126180D02*
X0360862Y0126180D01*
X0361217Y0126535D02*
X0359979Y0125297D01*
X0359309Y0123680D01*
X0359309Y0116730D01*
X0359979Y0115112D01*
X0361217Y0113875D01*
X0362834Y0113205D01*
X0364584Y0113205D01*
X0366202Y0113875D01*
X0367439Y0115112D01*
X0368109Y0116730D01*
X0368109Y0123680D01*
X0367439Y0125297D01*
X0366202Y0126535D01*
X0364584Y0127205D01*
X0362834Y0127205D01*
X0361217Y0126535D01*
X0359683Y0124582D02*
X0357736Y0124582D01*
X0358109Y0122983D02*
X0359309Y0122983D01*
X0359309Y0121385D02*
X0358109Y0121385D01*
X0358109Y0119786D02*
X0359309Y0119786D01*
X0359309Y0118188D02*
X0358109Y0118188D01*
X0358051Y0116589D02*
X0359367Y0116589D01*
X0360100Y0114991D02*
X0357318Y0114991D01*
X0355037Y0113392D02*
X0362381Y0113392D01*
X0365037Y0113392D02*
X0371092Y0113392D01*
X0369683Y0111794D02*
X0345401Y0111794D01*
X0345478Y0111871D02*
X0346153Y0112546D01*
X0346519Y0113428D01*
X0346519Y0114192D01*
X0347439Y0115112D01*
X0348109Y0116730D01*
X0348109Y0123680D01*
X0347439Y0125297D01*
X0346202Y0126535D01*
X0344584Y0127205D01*
X0342834Y0127205D01*
X0341217Y0126535D01*
X0339979Y0125297D01*
X0339309Y0123680D01*
X0339309Y0116730D01*
X0339979Y0115112D01*
X0340955Y0114136D01*
X0334024Y0107205D01*
X0332752Y0107205D01*
X0330819Y0105272D01*
X0330819Y0102539D01*
X0332752Y0100606D01*
X0335485Y0100606D01*
X0337419Y0102539D01*
X0337419Y0103811D01*
X0345478Y0111871D01*
X0346504Y0113392D02*
X0352381Y0113392D01*
X0350100Y0114991D02*
X0347318Y0114991D01*
X0348051Y0116589D02*
X0349367Y0116589D01*
X0349309Y0118188D02*
X0348109Y0118188D01*
X0348109Y0119786D02*
X0349309Y0119786D01*
X0349309Y0121385D02*
X0348109Y0121385D01*
X0348109Y0122983D02*
X0349309Y0122983D01*
X0349683Y0124582D02*
X0347736Y0124582D01*
X0346556Y0126180D02*
X0350862Y0126180D01*
X0351409Y0127779D02*
X0331536Y0127779D01*
X0331217Y0126535D02*
X0329979Y0125297D01*
X0329309Y0123680D01*
X0329309Y0116730D01*
X0329979Y0115112D01*
X0331217Y0113875D01*
X0332834Y0113205D01*
X0334584Y0113205D01*
X0336202Y0113875D01*
X0337439Y0115112D01*
X0338109Y0116730D01*
X0338109Y0123680D01*
X0337439Y0125297D01*
X0336202Y0126535D01*
X0334584Y0127205D01*
X0332834Y0127205D01*
X0331217Y0126535D01*
X0330862Y0126180D02*
X0329938Y0126180D01*
X0329683Y0124582D02*
X0328339Y0124582D01*
X0328109Y0122983D02*
X0329309Y0122983D01*
X0329309Y0121385D02*
X0328109Y0121385D01*
X0328109Y0119786D02*
X0329309Y0119786D01*
X0329309Y0118188D02*
X0328109Y0118188D01*
X0328051Y0116589D02*
X0329367Y0116589D01*
X0330100Y0114991D02*
X0327318Y0114991D01*
X0326519Y0113392D02*
X0332381Y0113392D01*
X0335037Y0113392D02*
X0340211Y0113392D01*
X0340100Y0114991D02*
X0337318Y0114991D01*
X0338051Y0116589D02*
X0339367Y0116589D01*
X0339309Y0118188D02*
X0338109Y0118188D01*
X0338109Y0119786D02*
X0339309Y0119786D01*
X0339309Y0121385D02*
X0338109Y0121385D01*
X0338109Y0122983D02*
X0339309Y0122983D01*
X0339683Y0124582D02*
X0337736Y0124582D01*
X0336556Y0126180D02*
X0340862Y0126180D01*
X0334733Y0130976D02*
X0351409Y0130976D01*
X0351409Y0129377D02*
X0333135Y0129377D01*
X0336332Y0132575D02*
X0351409Y0132575D01*
X0351409Y0134173D02*
X0337930Y0134173D01*
X0338419Y0135772D02*
X0351409Y0135772D01*
X0351409Y0137370D02*
X0338419Y0137370D01*
X0338419Y0138969D02*
X0351409Y0138969D01*
X0351409Y0140567D02*
X0337710Y0140567D01*
X0337071Y0141205D02*
X0337071Y0141205D01*
X0336111Y0142166D02*
X0351409Y0142166D01*
X0351007Y0143764D02*
X0334513Y0143764D01*
X0332914Y0145363D02*
X0349409Y0145363D01*
X0347810Y0146961D02*
X0331316Y0146961D01*
X0329717Y0148560D02*
X0346212Y0148560D01*
X0344613Y0150158D02*
X0328119Y0150158D01*
X0321679Y0145363D02*
X0283767Y0145363D01*
X0282292Y0146961D02*
X0320152Y0146961D01*
X0318624Y0148560D02*
X0280817Y0148560D01*
X0279343Y0150158D02*
X0317097Y0150158D01*
X0315570Y0151757D02*
X0277868Y0151757D01*
X0276394Y0153355D02*
X0314043Y0153355D01*
X0312515Y0154954D02*
X0274919Y0154954D01*
X0273444Y0156552D02*
X0310988Y0156552D01*
X0309461Y0158151D02*
X0271970Y0158151D01*
X0270495Y0159749D02*
X0307933Y0159749D01*
X0306406Y0161348D02*
X0268070Y0161348D01*
X0268040Y0162946D02*
X0266472Y0162946D01*
X0266538Y0164545D02*
X0265999Y0164545D01*
X0265604Y0170939D02*
X0266933Y0170939D01*
X0269067Y0172537D02*
X0263470Y0172537D01*
X0259067Y0172537D02*
X0253470Y0172537D01*
X0255604Y0170939D02*
X0256933Y0170939D01*
X0249067Y0172537D02*
X0243470Y0172537D01*
X0245604Y0170939D02*
X0246933Y0170939D01*
X0239067Y0172537D02*
X0233470Y0172537D01*
X0235604Y0170939D02*
X0236933Y0170939D01*
X0229067Y0172537D02*
X0223470Y0172537D01*
X0225604Y0170939D02*
X0226933Y0170939D01*
X0219067Y0172537D02*
X0213470Y0172537D01*
X0215604Y0170939D02*
X0216933Y0170939D01*
X0209067Y0172537D02*
X0203470Y0172537D01*
X0205604Y0170939D02*
X0206933Y0170939D01*
X0199067Y0172537D02*
X0193470Y0172537D01*
X0195604Y0170939D02*
X0196933Y0170939D01*
X0189067Y0172537D02*
X0183470Y0172537D01*
X0185604Y0170939D02*
X0186933Y0170939D01*
X0179067Y0172537D02*
X0173470Y0172537D01*
X0175604Y0170939D02*
X0176933Y0170939D01*
X0169067Y0172537D02*
X0163470Y0172537D01*
X0165604Y0170939D02*
X0166933Y0170939D01*
X0159067Y0172537D02*
X0153470Y0172537D01*
X0155604Y0170939D02*
X0156933Y0170939D01*
X0149067Y0172537D02*
X0143470Y0172537D01*
X0145604Y0170939D02*
X0146933Y0170939D01*
X0139067Y0172537D02*
X0133719Y0172537D01*
X0133719Y0174136D02*
X0287812Y0174136D01*
X0288292Y0174417D02*
X0289607Y0174417D01*
X0314119Y0149906D01*
X0323206Y0143764D02*
X0285241Y0143764D01*
X0286716Y0142166D02*
X0324734Y0142166D01*
X0325819Y0140567D02*
X0288190Y0140567D01*
X0289665Y0138969D02*
X0326389Y0138969D01*
X0331849Y0138969D02*
X0332803Y0138969D01*
X0333819Y0137370D02*
X0291140Y0137370D01*
X0292614Y0135772D02*
X0333023Y0135772D01*
X0331425Y0134173D02*
X0294089Y0134173D01*
X0295563Y0132575D02*
X0329826Y0132575D01*
X0328228Y0130976D02*
X0297038Y0130976D01*
X0298513Y0129377D02*
X0326629Y0129377D01*
X0325031Y0127779D02*
X0299987Y0127779D01*
X0306556Y0126180D02*
X0310862Y0126180D01*
X0309683Y0124582D02*
X0307736Y0124582D01*
X0308109Y0122983D02*
X0309309Y0122983D01*
X0316556Y0126180D02*
X0320862Y0126180D01*
X0319683Y0124582D02*
X0317736Y0124582D01*
X0318109Y0122983D02*
X0319309Y0122983D01*
X0319309Y0121385D02*
X0318109Y0121385D01*
X0318109Y0119786D02*
X0319309Y0119786D01*
X0319309Y0118188D02*
X0318109Y0118188D01*
X0318051Y0116589D02*
X0319367Y0116589D01*
X0320100Y0114991D02*
X0317318Y0114991D01*
X0315037Y0113392D02*
X0321719Y0113392D01*
X0321719Y0111794D02*
X0306109Y0111794D01*
X0306109Y0113392D02*
X0312381Y0113392D01*
X0310100Y0114991D02*
X0307318Y0114991D01*
X0308051Y0116589D02*
X0309367Y0116589D01*
X0306109Y0110195D02*
X0321719Y0110195D01*
X0320416Y0108597D02*
X0306109Y0108597D01*
X0306109Y0106998D02*
X0318817Y0106998D01*
X0317219Y0105400D02*
X0306109Y0105400D01*
X0306109Y0103801D02*
X0315620Y0103801D01*
X0320810Y0102203D02*
X0331154Y0102203D01*
X0330819Y0103801D02*
X0322408Y0103801D01*
X0324007Y0105400D02*
X0330946Y0105400D01*
X0332545Y0106998D02*
X0325606Y0106998D01*
X0326519Y0108597D02*
X0335416Y0108597D01*
X0337014Y0110195D02*
X0326519Y0110195D01*
X0326519Y0111794D02*
X0338613Y0111794D01*
X0342204Y0108597D02*
X0366863Y0108597D01*
X0368273Y0110195D02*
X0343803Y0110195D01*
X0340606Y0106998D02*
X0365453Y0106998D01*
X0364044Y0105400D02*
X0339007Y0105400D01*
X0337419Y0103801D02*
X0362634Y0103801D01*
X0361224Y0102203D02*
X0337083Y0102203D01*
X0334584Y0097205D02*
X0332834Y0097205D01*
X0331217Y0096535D01*
X0329979Y0095297D01*
X0329309Y0093680D01*
X0329309Y0086730D01*
X0329979Y0085112D01*
X0331217Y0083875D01*
X0332834Y0083205D01*
X0334584Y0083205D01*
X0336202Y0083875D01*
X0337439Y0085112D01*
X0338109Y0086730D01*
X0338109Y0093680D01*
X0337439Y0095297D01*
X0336202Y0096535D01*
X0334584Y0097205D01*
X0336928Y0095809D02*
X0340491Y0095809D01*
X0339979Y0095297D02*
X0339309Y0093680D01*
X0339309Y0086730D01*
X0339979Y0085112D01*
X0341217Y0083875D01*
X0342834Y0083205D01*
X0344584Y0083205D01*
X0346202Y0083875D01*
X0347439Y0085112D01*
X0348109Y0086730D01*
X0348109Y0093680D01*
X0347439Y0095297D01*
X0346202Y0096535D01*
X0344584Y0097205D01*
X0342834Y0097205D01*
X0341217Y0096535D01*
X0339979Y0095297D01*
X0339529Y0094210D02*
X0337889Y0094210D01*
X0338109Y0092612D02*
X0339309Y0092612D01*
X0339309Y0091013D02*
X0338109Y0091013D01*
X0338109Y0089415D02*
X0339309Y0089415D01*
X0339309Y0087816D02*
X0338109Y0087816D01*
X0337897Y0086218D02*
X0339521Y0086218D01*
X0340472Y0084619D02*
X0336946Y0084619D01*
X0330472Y0084619D02*
X0326946Y0084619D01*
X0327439Y0085112D02*
X0328109Y0086730D01*
X0328109Y0093680D01*
X0327439Y0095297D01*
X0326202Y0096535D01*
X0324584Y0097205D01*
X0322834Y0097205D01*
X0321217Y0096535D01*
X0319979Y0095297D01*
X0319309Y0093680D01*
X0319309Y0086730D01*
X0319979Y0085112D01*
X0321217Y0083875D01*
X0322834Y0083205D01*
X0324584Y0083205D01*
X0326202Y0083875D01*
X0327439Y0085112D01*
X0327897Y0086218D02*
X0329521Y0086218D01*
X0329309Y0087816D02*
X0328109Y0087816D01*
X0328109Y0089415D02*
X0329309Y0089415D01*
X0329309Y0091013D02*
X0328109Y0091013D01*
X0328109Y0092612D02*
X0329309Y0092612D01*
X0329529Y0094210D02*
X0327889Y0094210D01*
X0326928Y0095809D02*
X0330491Y0095809D01*
X0320491Y0095809D02*
X0316928Y0095809D01*
X0317889Y0094210D02*
X0319529Y0094210D01*
X0319309Y0092612D02*
X0318109Y0092612D01*
X0318109Y0091013D02*
X0319309Y0091013D01*
X0319309Y0089415D02*
X0318109Y0089415D01*
X0318109Y0087816D02*
X0319309Y0087816D01*
X0319521Y0086218D02*
X0317897Y0086218D01*
X0316946Y0084619D02*
X0320472Y0084619D01*
X0310472Y0084619D02*
X0306946Y0084619D01*
X0307065Y0084738D02*
X0306576Y0084249D01*
X0306015Y0083842D01*
X0305398Y0083527D01*
X0304739Y0083313D01*
X0304055Y0083205D01*
X0303709Y0083205D01*
X0303709Y0090205D01*
X0303709Y0097205D01*
X0304055Y0097205D01*
X0304739Y0097096D01*
X0305398Y0096882D01*
X0306015Y0096568D01*
X0306576Y0096161D01*
X0307065Y0095671D01*
X0307472Y0095111D01*
X0307787Y0094494D01*
X0308001Y0093835D01*
X0308109Y0093151D01*
X0308109Y0090205D01*
X0303709Y0090205D01*
X0303709Y0080496D01*
X0299119Y0075906D01*
X0299119Y0067819D01*
X0309402Y0057535D01*
X0314745Y0055846D02*
X0319539Y0055846D01*
X0317408Y0054247D02*
X0314745Y0054247D01*
X0315819Y0052649D02*
X0313418Y0052649D01*
X0314819Y0051050D02*
X0283419Y0051050D01*
X0283419Y0049452D02*
X0314819Y0049452D01*
X0316666Y0036664D02*
X0307419Y0036664D01*
X0307419Y0035065D02*
X0315067Y0035065D01*
X0314540Y0033467D02*
X0307419Y0033467D01*
X0307419Y0031868D02*
X0314540Y0031868D01*
X0314540Y0030270D02*
X0307421Y0030270D01*
X0308419Y0028671D02*
X0315850Y0028671D01*
X0317075Y0027073D02*
X0308419Y0027073D01*
X0319840Y0022277D02*
X0274815Y0022277D01*
X0274415Y0022277D02*
X0264815Y0022277D01*
X0264815Y0022139D02*
X0264815Y0022539D01*
X0269115Y0022539D01*
X0274415Y0022539D01*
X0274415Y0022139D01*
X0264815Y0022139D01*
X0264415Y0022139D02*
X0254815Y0022139D01*
X0254815Y0022539D01*
X0260115Y0022539D01*
X0264415Y0022539D01*
X0264415Y0022139D01*
X0264415Y0022277D02*
X0254815Y0022277D01*
X0254415Y0022277D02*
X0244815Y0022277D01*
X0244815Y0022139D02*
X0244815Y0022539D01*
X0250115Y0022539D01*
X0254415Y0022539D01*
X0254415Y0022139D01*
X0244815Y0022139D01*
X0244815Y0020679D02*
X0244415Y0020679D01*
X0244415Y0019080D02*
X0244815Y0019080D01*
X0244815Y0017482D02*
X0244415Y0017482D01*
X0241693Y0017482D02*
X0237536Y0017482D01*
X0239134Y0019080D02*
X0240095Y0019080D01*
X0247536Y0017482D02*
X0251693Y0017482D01*
X0250095Y0019080D02*
X0249134Y0019080D01*
X0254415Y0019080D02*
X0254815Y0019080D01*
X0254815Y0017482D02*
X0254415Y0017482D01*
X0257536Y0017482D02*
X0261693Y0017482D01*
X0260095Y0019080D02*
X0259134Y0019080D01*
X0254815Y0020679D02*
X0254415Y0020679D01*
X0264415Y0020679D02*
X0264815Y0020679D01*
X0264815Y0019080D02*
X0264415Y0019080D01*
X0264415Y0017482D02*
X0264815Y0017482D01*
X0267536Y0017482D02*
X0271693Y0017482D01*
X0270095Y0019080D02*
X0269134Y0019080D01*
X0274415Y0019080D02*
X0274815Y0019080D01*
X0274815Y0017482D02*
X0274415Y0017482D01*
X0274415Y0020679D02*
X0274815Y0020679D01*
X0251162Y0036664D02*
X0248068Y0036664D01*
X0241162Y0036664D02*
X0238068Y0036664D01*
X0231162Y0036664D02*
X0198611Y0036664D01*
X0198233Y0035065D02*
X0229563Y0035065D01*
X0226580Y0051050D02*
X0272315Y0051050D01*
X0271122Y0052649D02*
X0226580Y0052649D01*
X0226580Y0054247D02*
X0269524Y0054247D01*
X0267925Y0055846D02*
X0226580Y0055846D01*
X0226580Y0057444D02*
X0266327Y0057444D01*
X0272315Y0044656D02*
X0255620Y0044656D01*
X0257219Y0043058D02*
X0272315Y0043058D01*
X0276915Y0043058D02*
X0278299Y0043058D01*
X0273698Y0070233D02*
X0304059Y0070233D01*
X0304059Y0071831D02*
X0275297Y0071831D01*
X0276009Y0076627D02*
X0392870Y0076627D01*
X0392870Y0078225D02*
X0276009Y0078225D01*
X0276009Y0079824D02*
X0392870Y0079824D01*
X0392870Y0081422D02*
X0276009Y0081422D01*
X0286946Y0084619D02*
X0290472Y0084619D01*
X0289521Y0086218D02*
X0287897Y0086218D01*
X0288109Y0087816D02*
X0289309Y0087816D01*
X0289309Y0089415D02*
X0288109Y0089415D01*
X0288109Y0091013D02*
X0289309Y0091013D01*
X0289309Y0092612D02*
X0288109Y0092612D01*
X0287889Y0094210D02*
X0289529Y0094210D01*
X0290491Y0095809D02*
X0286928Y0095809D01*
X0287287Y0097407D02*
X0296222Y0097407D01*
X0297451Y0099006D02*
X0288419Y0099006D01*
X0288419Y0100604D02*
X0298681Y0100604D01*
X0299083Y0102203D02*
X0299911Y0102203D01*
X0299419Y0103801D02*
X0301140Y0103801D01*
X0301309Y0105400D02*
X0299291Y0105400D01*
X0297693Y0106998D02*
X0301309Y0106998D01*
X0301309Y0108597D02*
X0282419Y0108597D01*
X0282419Y0106998D02*
X0294545Y0106998D01*
X0291075Y0110195D02*
X0301309Y0110195D01*
X0301309Y0111794D02*
X0291419Y0111794D01*
X0291299Y0113392D02*
X0292435Y0113392D01*
X0292679Y0113313D02*
X0293363Y0113205D01*
X0293709Y0113205D01*
X0293709Y0120205D01*
X0293709Y0120205D01*
X0289309Y0120205D01*
X0289309Y0117258D01*
X0289417Y0116574D01*
X0289631Y0115916D01*
X0289946Y0115299D01*
X0290353Y0114738D01*
X0290843Y0114249D01*
X0291403Y0113842D01*
X0292020Y0113527D01*
X0292679Y0113313D01*
X0293709Y0113392D02*
X0293709Y0113392D01*
X0293709Y0113205D02*
X0294055Y0113205D01*
X0294739Y0113313D01*
X0295398Y0113527D01*
X0296015Y0113842D01*
X0296576Y0114249D01*
X0297065Y0114738D01*
X0297472Y0115299D01*
X0297787Y0115916D01*
X0298001Y0116574D01*
X0298109Y0117258D01*
X0298109Y0120205D01*
X0293709Y0120205D01*
X0293709Y0120205D01*
X0293709Y0113205D01*
X0294984Y0113392D02*
X0301309Y0113392D01*
X0300100Y0114991D02*
X0297249Y0114991D01*
X0298003Y0116589D02*
X0299367Y0116589D01*
X0299309Y0118188D02*
X0298109Y0118188D01*
X0298109Y0119786D02*
X0299309Y0119786D01*
X0299309Y0121385D02*
X0298109Y0121385D01*
X0293709Y0121385D02*
X0293709Y0121385D01*
X0293709Y0122983D02*
X0293709Y0122983D01*
X0293709Y0124582D02*
X0293709Y0124582D01*
X0293709Y0126180D02*
X0293709Y0126180D01*
X0293457Y0127779D02*
X0242677Y0127779D01*
X0243950Y0129377D02*
X0291982Y0129377D01*
X0290508Y0130976D02*
X0285856Y0130976D01*
X0286419Y0132575D02*
X0289033Y0132575D01*
X0287558Y0134173D02*
X0286419Y0134173D01*
X0286084Y0135772D02*
X0284919Y0135772D01*
X0284609Y0137370D02*
X0281907Y0137370D01*
X0283135Y0138969D02*
X0280308Y0138969D01*
X0281660Y0140567D02*
X0278710Y0140567D01*
X0280185Y0142166D02*
X0277111Y0142166D01*
X0275513Y0143764D02*
X0278711Y0143764D01*
X0277236Y0145363D02*
X0273914Y0145363D01*
X0272316Y0146961D02*
X0275762Y0146961D01*
X0274287Y0148560D02*
X0270717Y0148560D01*
X0269119Y0150158D02*
X0272812Y0150158D01*
X0271338Y0151757D02*
X0267520Y0151757D01*
X0265922Y0153355D02*
X0269863Y0153355D01*
X0268389Y0154954D02*
X0264323Y0154954D01*
X0261015Y0151757D02*
X0196277Y0151757D01*
X0196939Y0150158D02*
X0262613Y0150158D01*
X0264212Y0148560D02*
X0223108Y0148560D01*
X0213208Y0148560D02*
X0212084Y0148560D01*
X0212084Y0146961D02*
X0213208Y0146961D01*
X0213208Y0145363D02*
X0212084Y0145363D01*
X0212084Y0143764D02*
X0213208Y0143764D01*
X0213208Y0142166D02*
X0212084Y0142166D01*
X0212084Y0140567D02*
X0213208Y0140567D01*
X0209044Y0138969D02*
X0255819Y0138969D01*
X0255987Y0137370D02*
X0208930Y0137370D01*
X0208820Y0135772D02*
X0212318Y0135772D01*
X0215919Y0135772D02*
X0243110Y0135772D01*
X0241887Y0134173D02*
X0217419Y0134173D01*
X0217419Y0132575D02*
X0240615Y0132575D01*
X0239343Y0130976D02*
X0216856Y0130976D01*
X0229683Y0124582D02*
X0201695Y0124582D01*
X0203293Y0122983D02*
X0229309Y0122983D01*
X0229309Y0121385D02*
X0204892Y0121385D01*
X0206490Y0119786D02*
X0229309Y0119786D01*
X0229309Y0118188D02*
X0208089Y0118188D01*
X0209687Y0116589D02*
X0229367Y0116589D01*
X0230100Y0114991D02*
X0211286Y0114991D01*
X0204435Y0110195D02*
X0202548Y0110195D01*
X0202548Y0108597D02*
X0206033Y0108597D01*
X0207632Y0106998D02*
X0202548Y0106998D01*
X0202548Y0105400D02*
X0228219Y0105400D01*
X0226620Y0103801D02*
X0202548Y0103801D01*
X0202548Y0102203D02*
X0225022Y0102203D01*
X0223423Y0100604D02*
X0202548Y0100604D01*
X0202548Y0099006D02*
X0221825Y0099006D01*
X0220226Y0097407D02*
X0201914Y0097407D01*
X0195756Y0094210D02*
X0178676Y0094210D01*
X0179419Y0095809D02*
X0218628Y0095809D01*
X0236928Y0095809D02*
X0240491Y0095809D01*
X0239979Y0095297D02*
X0239309Y0093680D01*
X0239309Y0086730D01*
X0239979Y0085112D01*
X0241217Y0083875D01*
X0242834Y0083205D01*
X0244584Y0083205D01*
X0246202Y0083875D01*
X0247439Y0085112D01*
X0248109Y0086730D01*
X0248109Y0093680D01*
X0247439Y0095297D01*
X0246202Y0096535D01*
X0244584Y0097205D01*
X0242834Y0097205D01*
X0241217Y0096535D01*
X0239979Y0095297D01*
X0239529Y0094210D02*
X0237889Y0094210D01*
X0238109Y0092612D02*
X0239309Y0092612D01*
X0239309Y0091013D02*
X0238109Y0091013D01*
X0238109Y0089415D02*
X0239309Y0089415D01*
X0239309Y0087816D02*
X0238109Y0087816D01*
X0237897Y0086218D02*
X0239521Y0086218D01*
X0240472Y0084619D02*
X0236946Y0084619D01*
X0231819Y0083021D02*
X0197901Y0083021D01*
X0195942Y0089415D02*
X0173880Y0089415D01*
X0175479Y0091013D02*
X0194819Y0091013D01*
X0194819Y0092612D02*
X0177077Y0092612D01*
X0173769Y0095809D02*
X0173419Y0095809D01*
X0173284Y0097407D02*
X0174819Y0097407D01*
X0174819Y0099006D02*
X0171685Y0099006D01*
X0168552Y0099006D02*
X0134121Y0099006D01*
X0132523Y0100604D02*
X0174819Y0100604D01*
X0174819Y0102203D02*
X0130924Y0102203D01*
X0129326Y0103801D02*
X0174819Y0103801D01*
X0173957Y0105400D02*
X0127727Y0105400D01*
X0126129Y0106998D02*
X0164359Y0106998D01*
X0163819Y0108597D02*
X0124530Y0108597D01*
X0125986Y0110195D02*
X0122932Y0110195D01*
X0124387Y0111794D02*
X0121333Y0111794D01*
X0122789Y0113392D02*
X0119734Y0113392D01*
X0104119Y0127906D02*
X0102119Y0129906D01*
X0102119Y0130906D01*
X0119167Y0143764D02*
X0071735Y0143764D01*
X0071735Y0142166D02*
X0163353Y0142166D01*
X0164841Y0140567D02*
X0071735Y0140567D01*
X0071735Y0138969D02*
X0166330Y0138969D01*
X0167818Y0137370D02*
X0071736Y0137370D01*
X0071736Y0135772D02*
X0169307Y0135772D01*
X0176582Y0138969D02*
X0204433Y0138969D01*
X0202185Y0140567D02*
X0175273Y0140567D01*
X0173963Y0142166D02*
X0202185Y0142166D01*
X0202185Y0143764D02*
X0193999Y0143764D01*
X0196007Y0145363D02*
X0202185Y0145363D01*
X0202185Y0146961D02*
X0196809Y0146961D01*
X0197083Y0148560D02*
X0202185Y0148560D01*
X0194723Y0153355D02*
X0258416Y0153355D01*
X0256316Y0146961D02*
X0265810Y0146961D01*
X0267409Y0145363D02*
X0257914Y0145363D01*
X0259513Y0143764D02*
X0269007Y0143764D01*
X0270606Y0142166D02*
X0261111Y0142166D01*
X0262124Y0140567D02*
X0272204Y0140567D01*
X0273803Y0138969D02*
X0262419Y0138969D01*
X0262250Y0137370D02*
X0262916Y0137370D01*
X0267321Y0137370D02*
X0275401Y0137370D01*
X0277000Y0135772D02*
X0268419Y0135772D01*
X0268419Y0134173D02*
X0278598Y0134173D01*
X0279819Y0132575D02*
X0267454Y0132575D01*
X0262783Y0132575D02*
X0246494Y0132575D01*
X0245222Y0130976D02*
X0280381Y0130976D01*
X0280862Y0126180D02*
X0276556Y0126180D01*
X0277736Y0124582D02*
X0279683Y0124582D01*
X0279309Y0122983D02*
X0278109Y0122983D01*
X0278109Y0121385D02*
X0279309Y0121385D01*
X0279309Y0119786D02*
X0278109Y0119786D01*
X0278109Y0118188D02*
X0279309Y0118188D01*
X0279367Y0116589D02*
X0278051Y0116589D01*
X0277318Y0114991D02*
X0280100Y0114991D01*
X0288051Y0116589D02*
X0289415Y0116589D01*
X0289309Y0118188D02*
X0288109Y0118188D01*
X0288109Y0119786D02*
X0289309Y0119786D01*
X0289309Y0121385D02*
X0288109Y0121385D01*
X0288109Y0122983D02*
X0289309Y0122983D01*
X0289676Y0124582D02*
X0287736Y0124582D01*
X0286556Y0126180D02*
X0290870Y0126180D01*
X0293709Y0119786D02*
X0293709Y0119786D01*
X0293709Y0118188D02*
X0293709Y0118188D01*
X0293709Y0116589D02*
X0293709Y0116589D01*
X0293709Y0114991D02*
X0293709Y0114991D01*
X0290170Y0114991D02*
X0289700Y0114991D01*
X0270100Y0114991D02*
X0267318Y0114991D01*
X0268051Y0116589D02*
X0269367Y0116589D01*
X0269309Y0118188D02*
X0268109Y0118188D01*
X0268109Y0119786D02*
X0269309Y0119786D01*
X0269309Y0121385D02*
X0268109Y0121385D01*
X0268109Y0122983D02*
X0269309Y0122983D01*
X0269683Y0124582D02*
X0267736Y0124582D01*
X0266556Y0126180D02*
X0270862Y0126180D01*
X0260862Y0126180D02*
X0256556Y0126180D01*
X0257736Y0124582D02*
X0259683Y0124582D01*
X0259309Y0122983D02*
X0258109Y0122983D01*
X0258109Y0121385D02*
X0259309Y0121385D01*
X0259309Y0119786D02*
X0258109Y0119786D01*
X0258109Y0118188D02*
X0259309Y0118188D01*
X0259367Y0116589D02*
X0258051Y0116589D01*
X0257318Y0114991D02*
X0260100Y0114991D01*
X0250100Y0114991D02*
X0247318Y0114991D01*
X0248051Y0116589D02*
X0249367Y0116589D01*
X0249309Y0118188D02*
X0248109Y0118188D01*
X0248109Y0119786D02*
X0249309Y0119786D01*
X0249309Y0121385D02*
X0248109Y0121385D01*
X0248109Y0122983D02*
X0249309Y0122983D01*
X0249683Y0124582D02*
X0247736Y0124582D01*
X0246556Y0126180D02*
X0250862Y0126180D01*
X0238070Y0129377D02*
X0196899Y0129377D01*
X0198498Y0127779D02*
X0236798Y0127779D01*
X0230862Y0126180D02*
X0200096Y0126180D01*
X0202099Y0111794D02*
X0202836Y0111794D01*
X0187137Y0108597D02*
X0180094Y0108597D01*
X0180419Y0106998D02*
X0187137Y0106998D01*
X0187137Y0105400D02*
X0180280Y0105400D01*
X0179419Y0103801D02*
X0187137Y0103801D01*
X0187137Y0102203D02*
X0179419Y0102203D01*
X0179419Y0100604D02*
X0187137Y0100604D01*
X0187137Y0099006D02*
X0179419Y0099006D01*
X0179419Y0097407D02*
X0187772Y0097407D01*
X0173819Y0106998D02*
X0169878Y0106998D01*
X0170419Y0108597D02*
X0174143Y0108597D01*
X0165340Y0111794D02*
X0163419Y0111794D01*
X0163075Y0110195D02*
X0163819Y0110195D01*
X0159167Y0143764D02*
X0153978Y0143764D01*
X0151783Y0143764D02*
X0151383Y0143764D01*
X0151383Y0145363D02*
X0151783Y0145363D01*
X0151783Y0146961D02*
X0151383Y0146961D01*
X0149188Y0143764D02*
X0143999Y0143764D01*
X0146007Y0145363D02*
X0147222Y0145363D01*
X0136889Y0151757D02*
X0136173Y0151757D01*
X0134556Y0153355D02*
X0138444Y0153355D01*
X0131783Y0153355D02*
X0131383Y0153355D01*
X0131383Y0151757D02*
X0131783Y0151757D01*
X0131783Y0150158D02*
X0131383Y0150158D01*
X0131497Y0154954D02*
X0144568Y0154954D01*
X0131119Y0158252D02*
X0121583Y0148717D01*
X0116083Y0148560D02*
X0071735Y0148560D01*
X0071735Y0150158D02*
X0116227Y0150158D01*
X0116889Y0151757D02*
X0071734Y0151757D01*
X0071734Y0153355D02*
X0118444Y0153355D01*
X0124143Y0154954D02*
X0071734Y0154954D01*
X0071734Y0156552D02*
X0087731Y0156552D01*
X0088311Y0156397D02*
X0091233Y0156397D01*
X0094056Y0157153D01*
X0096587Y0158614D01*
X0098654Y0160681D01*
X0100115Y0163212D01*
X0100871Y0166035D01*
X0100871Y0168957D01*
X0100115Y0171780D01*
X0098654Y0174311D01*
X0096587Y0176378D01*
X0094056Y0177839D01*
X0091233Y0178595D01*
X0088311Y0178595D01*
X0085488Y0177839D01*
X0082957Y0176378D01*
X0080891Y0174311D01*
X0079429Y0171780D01*
X0078673Y0168957D01*
X0078673Y0166035D01*
X0079429Y0163212D01*
X0080891Y0160681D01*
X0082957Y0158614D01*
X0085488Y0157153D01*
X0088311Y0156397D01*
X0091813Y0156552D02*
X0125742Y0156552D01*
X0127340Y0158151D02*
X0095784Y0158151D01*
X0097722Y0159749D02*
X0128519Y0159749D01*
X0128519Y0161348D02*
X0099039Y0161348D01*
X0099962Y0162946D02*
X0118173Y0162946D01*
X0116614Y0164545D02*
X0100472Y0164545D01*
X0100871Y0166143D02*
X0115925Y0166143D01*
X0115768Y0167742D02*
X0100871Y0167742D01*
X0100769Y0169340D02*
X0116084Y0169340D01*
X0116971Y0170939D02*
X0100340Y0170939D01*
X0099678Y0172537D02*
X0119047Y0172537D01*
X0121068Y0172537D02*
X0121468Y0172537D01*
X0121468Y0170939D02*
X0121068Y0170939D01*
X0121068Y0169340D02*
X0121468Y0169340D01*
X0121468Y0167742D02*
X0121068Y0167742D01*
X0121268Y0167496D02*
X0118111Y0170654D01*
X0118111Y0199374D01*
X0117911Y0199712D02*
X0118311Y0199712D01*
X0118311Y0201310D02*
X0117911Y0201310D01*
X0117911Y0202909D02*
X0118311Y0202909D01*
X0118311Y0204508D02*
X0117911Y0204508D01*
X0116112Y0204508D02*
X0071731Y0204508D01*
X0071731Y0206106D02*
X0359652Y0206106D01*
X0358819Y0205272D02*
X0360752Y0207205D01*
X0363485Y0207205D01*
X0365419Y0205272D01*
X0365419Y0202539D01*
X0364888Y0202008D01*
X0366316Y0193860D01*
X0366325Y0193846D01*
X0366399Y0193391D01*
X0366478Y0192936D01*
X0366475Y0192920D01*
X0368581Y0179879D01*
X0370226Y0179197D01*
X0371812Y0177611D01*
X0372671Y0175539D01*
X0372671Y0173296D01*
X0371812Y0171223D01*
X0370226Y0169637D01*
X0368154Y0168779D01*
X0365910Y0168779D01*
X0363838Y0169637D01*
X0362252Y0171223D01*
X0361393Y0173296D01*
X0361393Y0175539D01*
X0362252Y0177611D01*
X0363830Y0179190D01*
X0361665Y0192593D01*
X0360156Y0201201D01*
X0358819Y0202539D01*
X0358819Y0205272D01*
X0358819Y0204508D02*
X0142923Y0204508D01*
X0143611Y0202909D02*
X0257455Y0202909D01*
X0255857Y0201310D02*
X0143611Y0201310D01*
X0143611Y0199712D02*
X0255819Y0199712D01*
X0256244Y0198113D02*
X0143611Y0198113D01*
X0143611Y0196515D02*
X0256819Y0196515D01*
X0257855Y0194916D02*
X0143599Y0194916D01*
X0140711Y0193318D02*
X0257864Y0193318D01*
X0256819Y0191719D02*
X0140711Y0191719D01*
X0140711Y0190121D02*
X0256819Y0190121D01*
X0257835Y0188522D02*
X0140711Y0188522D01*
X0140711Y0186924D02*
X0261148Y0186924D01*
X0262955Y0185325D02*
X0140688Y0185325D01*
X0139617Y0183727D02*
X0264762Y0183727D01*
X0266569Y0182128D02*
X0138018Y0182128D01*
X0136420Y0180530D02*
X0268376Y0180530D01*
X0268119Y0176906D02*
X0285804Y0176906D01*
X0288292Y0174417D01*
X0288771Y0174136D02*
X0294188Y0174136D01*
X0293610Y0172537D02*
X0295715Y0172537D01*
X0297242Y0170939D02*
X0292734Y0170939D01*
X0290748Y0169340D02*
X0298770Y0169340D01*
X0300297Y0167742D02*
X0276768Y0167742D01*
X0276661Y0166143D02*
X0301824Y0166143D01*
X0303352Y0164545D02*
X0275999Y0164545D01*
X0274497Y0162946D02*
X0304879Y0162946D01*
X0315338Y0170939D02*
X0362536Y0170939D01*
X0361708Y0172537D02*
X0313739Y0172537D01*
X0312141Y0174136D02*
X0361393Y0174136D01*
X0361474Y0175734D02*
X0311614Y0175734D01*
X0312419Y0177333D02*
X0362136Y0177333D01*
X0363572Y0178931D02*
X0312419Y0178931D01*
X0311161Y0180530D02*
X0363614Y0180530D01*
X0363355Y0182128D02*
X0300148Y0182128D01*
X0298550Y0183727D02*
X0363097Y0183727D01*
X0362839Y0185325D02*
X0296951Y0185325D01*
X0295353Y0186924D02*
X0362581Y0186924D01*
X0362323Y0188522D02*
X0293754Y0188522D01*
X0292156Y0190121D02*
X0362065Y0190121D01*
X0361806Y0191719D02*
X0273557Y0191719D01*
X0271959Y0193318D02*
X0361538Y0193318D01*
X0361258Y0194916D02*
X0270360Y0194916D01*
X0269419Y0196515D02*
X0360978Y0196515D01*
X0360697Y0198113D02*
X0268578Y0198113D01*
X0263660Y0198113D02*
X0261993Y0198113D01*
X0262419Y0199712D02*
X0360417Y0199712D01*
X0360047Y0201310D02*
X0262380Y0201310D01*
X0260782Y0202909D02*
X0358819Y0202909D01*
X0365010Y0201310D02*
X0392870Y0201310D01*
X0392870Y0199712D02*
X0365290Y0199712D01*
X0365571Y0198113D02*
X0392870Y0198113D01*
X0392870Y0196515D02*
X0365851Y0196515D01*
X0366131Y0194916D02*
X0392870Y0194916D01*
X0392870Y0193318D02*
X0366411Y0193318D01*
X0366669Y0191719D02*
X0392870Y0191719D01*
X0392870Y0190121D02*
X0366927Y0190121D01*
X0367185Y0188522D02*
X0392870Y0188522D01*
X0392870Y0186924D02*
X0367443Y0186924D01*
X0367701Y0185325D02*
X0392870Y0185325D01*
X0392870Y0183727D02*
X0367959Y0183727D01*
X0368218Y0182128D02*
X0392870Y0182128D01*
X0392870Y0180530D02*
X0368476Y0180530D01*
X0370492Y0178931D02*
X0392870Y0178931D01*
X0392870Y0177333D02*
X0390208Y0177333D01*
X0392506Y0175734D02*
X0392870Y0175734D01*
X0379887Y0177333D02*
X0371927Y0177333D01*
X0372590Y0175734D02*
X0377589Y0175734D01*
X0376065Y0174136D02*
X0372671Y0174136D01*
X0372356Y0172537D02*
X0375142Y0172537D01*
X0374479Y0170939D02*
X0371528Y0170939D01*
X0369509Y0169340D02*
X0374051Y0169340D01*
X0373949Y0167742D02*
X0318535Y0167742D01*
X0316937Y0169340D02*
X0364555Y0169340D01*
X0373949Y0166143D02*
X0341134Y0166143D01*
X0342732Y0164545D02*
X0374348Y0164545D01*
X0374858Y0162946D02*
X0344331Y0162946D01*
X0345929Y0161348D02*
X0375781Y0161348D01*
X0377098Y0159749D02*
X0347528Y0159749D01*
X0349126Y0158151D02*
X0379036Y0158151D01*
X0383007Y0156552D02*
X0350725Y0156552D01*
X0352323Y0154954D02*
X0392870Y0154954D01*
X0392870Y0156552D02*
X0387089Y0156552D01*
X0391059Y0158151D02*
X0392870Y0158151D01*
X0392870Y0153355D02*
X0353922Y0153355D01*
X0355520Y0151757D02*
X0392870Y0151757D01*
X0392870Y0150158D02*
X0357119Y0150158D01*
X0366556Y0126180D02*
X0373819Y0126180D01*
X0373819Y0124582D02*
X0367736Y0124582D01*
X0368109Y0122983D02*
X0373819Y0122983D01*
X0373819Y0121385D02*
X0368109Y0121385D01*
X0368109Y0119786D02*
X0373819Y0119786D01*
X0373819Y0118188D02*
X0368109Y0118188D01*
X0368051Y0116589D02*
X0373819Y0116589D01*
X0372502Y0114991D02*
X0367318Y0114991D01*
X0359814Y0100604D02*
X0319211Y0100604D01*
X0317613Y0099006D02*
X0358404Y0099006D01*
X0356995Y0097407D02*
X0315287Y0097407D01*
X0310950Y0097407D02*
X0302277Y0097407D01*
X0303507Y0099006D02*
X0309819Y0099006D01*
X0309819Y0100604D02*
X0304737Y0100604D01*
X0305925Y0102203D02*
X0310749Y0102203D01*
X0310491Y0095809D02*
X0306928Y0095809D01*
X0307879Y0094210D02*
X0309529Y0094210D01*
X0309309Y0092612D02*
X0308109Y0092612D01*
X0308109Y0091013D02*
X0309309Y0091013D01*
X0308109Y0090205D02*
X0303709Y0090205D01*
X0303709Y0090205D01*
X0299309Y0090205D01*
X0299309Y0087258D01*
X0299417Y0086574D01*
X0299631Y0085916D01*
X0299946Y0085299D01*
X0300353Y0084738D01*
X0300843Y0084249D01*
X0301403Y0083842D01*
X0302020Y0083527D01*
X0302679Y0083313D01*
X0303363Y0083205D01*
X0303709Y0083205D01*
X0303709Y0090205D01*
X0303709Y0090205D01*
X0303709Y0089415D02*
X0303709Y0089415D01*
X0303709Y0091013D02*
X0303709Y0091013D01*
X0303709Y0092612D02*
X0303709Y0092612D01*
X0303709Y0094210D02*
X0303709Y0094210D01*
X0303709Y0095809D02*
X0303709Y0095809D01*
X0299309Y0092612D02*
X0298589Y0092612D01*
X0298109Y0091013D02*
X0299309Y0091013D01*
X0299309Y0089415D02*
X0298109Y0089415D01*
X0298109Y0087816D02*
X0299309Y0087816D01*
X0299533Y0086218D02*
X0297897Y0086218D01*
X0296946Y0084619D02*
X0300472Y0084619D01*
X0303709Y0084619D02*
X0303709Y0084619D01*
X0303709Y0086218D02*
X0303709Y0086218D01*
X0303709Y0087816D02*
X0303709Y0087816D01*
X0308109Y0087816D02*
X0309309Y0087816D01*
X0308109Y0087258D02*
X0308109Y0090205D01*
X0308109Y0089415D02*
X0309309Y0089415D01*
X0308109Y0087258D02*
X0308001Y0086574D01*
X0307787Y0085916D01*
X0307472Y0085299D01*
X0307065Y0084738D01*
X0307885Y0086218D02*
X0309521Y0086218D01*
X0346946Y0084619D02*
X0350472Y0084619D01*
X0349521Y0086218D02*
X0347897Y0086218D01*
X0348109Y0087816D02*
X0349309Y0087816D01*
X0349309Y0089415D02*
X0348109Y0089415D01*
X0348109Y0091013D02*
X0349309Y0091013D01*
X0349309Y0092612D02*
X0348109Y0092612D01*
X0347889Y0094210D02*
X0349529Y0094210D01*
X0350491Y0095809D02*
X0346928Y0095809D01*
X0358109Y0091013D02*
X0359309Y0091013D01*
X0359309Y0089415D02*
X0358109Y0089415D01*
X0358109Y0087816D02*
X0359309Y0087816D01*
X0359521Y0086218D02*
X0357897Y0086218D01*
X0356946Y0084619D02*
X0360472Y0084619D01*
X0359309Y0092612D02*
X0358899Y0092612D01*
X0389129Y0055846D02*
X0392870Y0055846D01*
X0392870Y0054247D02*
X0391946Y0054247D01*
X0348393Y0049452D02*
X0345825Y0049452D01*
X0336666Y0036664D02*
X0333414Y0036664D01*
X0335013Y0035065D02*
X0335067Y0035065D01*
X0250472Y0084619D02*
X0246946Y0084619D01*
X0247897Y0086218D02*
X0249521Y0086218D01*
X0249309Y0087816D02*
X0248109Y0087816D01*
X0248109Y0089415D02*
X0249309Y0089415D01*
X0249309Y0091013D02*
X0248109Y0091013D01*
X0248109Y0092612D02*
X0249309Y0092612D01*
X0249529Y0094210D02*
X0247889Y0094210D01*
X0246928Y0095809D02*
X0250491Y0095809D01*
X0231819Y0081422D02*
X0225636Y0081422D01*
X0226580Y0079824D02*
X0232948Y0079824D01*
X0233166Y0079606D02*
X0233166Y0079606D01*
X0236066Y0073430D02*
X0226580Y0073430D01*
X0219980Y0054247D02*
X0211580Y0054247D01*
X0211580Y0052649D02*
X0219980Y0052649D01*
X0219980Y0051050D02*
X0211580Y0051050D01*
X0195643Y0051050D02*
X0194043Y0051050D01*
X0193119Y0051787D02*
X0194843Y0053512D01*
X0194043Y0052649D02*
X0195643Y0052649D01*
X0195643Y0049452D02*
X0194043Y0049452D01*
X0194043Y0047853D02*
X0195643Y0047853D01*
X0195643Y0046255D02*
X0194043Y0046255D01*
X0188478Y0017482D02*
X0231693Y0017482D01*
X0223108Y0140567D02*
X0256113Y0140567D01*
X0254606Y0142166D02*
X0223108Y0142166D01*
X0189167Y0143764D02*
X0183978Y0143764D01*
X0181783Y0143764D02*
X0181383Y0143764D01*
X0181383Y0145363D02*
X0181783Y0145363D01*
X0181783Y0146961D02*
X0181383Y0146961D01*
X0179188Y0143764D02*
X0173999Y0143764D01*
X0176007Y0145363D02*
X0177222Y0145363D01*
X0185945Y0145363D02*
X0187159Y0145363D01*
X0157159Y0145363D02*
X0155945Y0145363D01*
X0131783Y0143764D02*
X0131383Y0143764D01*
X0129188Y0143764D02*
X0123999Y0143764D01*
X0126007Y0145363D02*
X0127222Y0145363D01*
X0117159Y0145363D02*
X0071735Y0145363D01*
X0071735Y0146961D02*
X0116357Y0146961D01*
X0131119Y0158252D02*
X0131119Y0158906D01*
X0131119Y0178906D01*
X0138111Y0185898D01*
X0138111Y0199374D01*
X0132611Y0202909D02*
X0132354Y0202909D01*
X0133299Y0204508D02*
X0130090Y0204508D01*
X0126132Y0204508D02*
X0120110Y0204508D01*
X0122341Y0202909D02*
X0123868Y0202909D01*
X0118311Y0198113D02*
X0117911Y0198113D01*
X0117911Y0196515D02*
X0118311Y0196515D01*
X0118311Y0194916D02*
X0117911Y0194916D01*
X0114889Y0194916D02*
X0071731Y0194916D01*
X0071731Y0193318D02*
X0135511Y0193318D01*
X0135511Y0191719D02*
X0071732Y0191719D01*
X0071732Y0190121D02*
X0135511Y0190121D01*
X0135511Y0188522D02*
X0071732Y0188522D01*
X0071732Y0186924D02*
X0135460Y0186924D01*
X0133862Y0185325D02*
X0071732Y0185325D01*
X0071732Y0183727D02*
X0132263Y0183727D01*
X0130664Y0182128D02*
X0071732Y0182128D01*
X0071732Y0180530D02*
X0129066Y0180530D01*
X0128519Y0178931D02*
X0071733Y0178931D01*
X0071733Y0177333D02*
X0084612Y0177333D01*
X0082314Y0175734D02*
X0071733Y0175734D01*
X0071733Y0174136D02*
X0080789Y0174136D01*
X0079866Y0172537D02*
X0071733Y0172537D01*
X0071733Y0170939D02*
X0079204Y0170939D01*
X0078776Y0169340D02*
X0071733Y0169340D01*
X0071733Y0167742D02*
X0078673Y0167742D01*
X0078673Y0166143D02*
X0071733Y0166143D01*
X0071734Y0164545D02*
X0079072Y0164545D01*
X0079583Y0162946D02*
X0071734Y0162946D01*
X0071734Y0161348D02*
X0080506Y0161348D01*
X0081822Y0159749D02*
X0071734Y0159749D01*
X0071734Y0158151D02*
X0083760Y0158151D01*
X0098755Y0174136D02*
X0128519Y0174136D01*
X0128519Y0175734D02*
X0097231Y0175734D01*
X0094933Y0177333D02*
X0128519Y0177333D01*
X0133719Y0177333D02*
X0283449Y0177333D01*
X0282792Y0175734D02*
X0133719Y0175734D01*
X0134821Y0178931D02*
X0284912Y0178931D01*
X0282974Y0172537D02*
X0273470Y0172537D01*
X0275604Y0170939D02*
X0283849Y0170939D01*
X0285836Y0169340D02*
X0276457Y0169340D01*
X0268119Y0176906D02*
X0263119Y0181906D01*
X0260119Y0181906D01*
X0247619Y0194406D01*
X0262119Y0208906D01*
X0247619Y0194406D02*
X0244119Y0197906D01*
X0235119Y0197906D01*
X0262762Y0196515D02*
X0262819Y0196515D01*
X0287812Y0172537D02*
X0288771Y0172537D01*
X0288771Y0170939D02*
X0287812Y0170939D01*
X0287812Y0169340D02*
X0288771Y0169340D01*
X0303345Y0178931D02*
X0305819Y0178931D01*
X0305819Y0177333D02*
X0304944Y0177333D01*
X0306542Y0175734D02*
X0306623Y0175734D01*
X0307076Y0180530D02*
X0301747Y0180530D01*
X0365419Y0202909D02*
X0392870Y0202909D01*
X0392870Y0204508D02*
X0365419Y0204508D01*
X0364585Y0206106D02*
X0392870Y0206106D01*
X0392870Y0207705D02*
X0071730Y0207705D01*
X0071730Y0209303D02*
X0392870Y0209303D01*
X0392870Y0210902D02*
X0071730Y0210902D01*
X0071730Y0212500D02*
X0392870Y0212500D01*
X0392870Y0214099D02*
X0071730Y0214099D01*
X0071731Y0202909D02*
X0113881Y0202909D01*
X0112957Y0201310D02*
X0071731Y0201310D01*
X0071731Y0199712D02*
X0112611Y0199712D01*
X0112742Y0198113D02*
X0071731Y0198113D01*
X0071731Y0196515D02*
X0113395Y0196515D01*
X0121333Y0194916D02*
X0124790Y0194916D01*
X0123342Y0196515D02*
X0122827Y0196515D01*
X0131431Y0194916D02*
X0132623Y0194916D01*
X0128519Y0172537D02*
X0123489Y0172537D01*
X0125565Y0170939D02*
X0126933Y0170939D01*
X0126538Y0164545D02*
X0125922Y0164545D01*
X0124363Y0162946D02*
X0128040Y0162946D01*
X0121468Y0162946D02*
X0121068Y0162946D01*
X0121068Y0164545D02*
X0121468Y0164545D01*
X0121468Y0166143D02*
X0121068Y0166143D01*
X0135604Y0170939D02*
X0136933Y0170939D01*
D23*
X0131119Y0158906D02*
X0267119Y0158906D01*
X0261119Y0164906D01*
X0261119Y0167346D01*
X0261268Y0167496D01*
X0261268Y0168756D01*
X0261119Y0168906D01*
X0267119Y0158906D02*
X0268008Y0158906D01*
X0303709Y0120205D01*
X0303709Y0103205D01*
X0293709Y0090205D01*
X0285119Y0099906D02*
X0231119Y0099906D01*
X0216119Y0085906D01*
X0196119Y0085906D01*
X0198119Y0091906D02*
X0218119Y0091906D01*
X0230119Y0103906D01*
X0296119Y0103906D01*
X0313119Y0099906D02*
X0316119Y0100906D01*
X0324119Y0108906D01*
X0324119Y0123614D01*
X0325264Y0124760D01*
X0313709Y0120205D02*
X0303709Y0120205D01*
X0279119Y0107906D02*
X0210119Y0107906D01*
X0200119Y0117906D01*
X0192119Y0117906D01*
X0186119Y0111906D01*
X0170119Y0111906D01*
X0167119Y0108906D01*
X0160119Y0111906D02*
X0127670Y0111906D01*
X0119134Y0120441D01*
X0109292Y0120441D02*
X0133827Y0095906D01*
X0170119Y0095906D01*
X0148662Y0120441D02*
X0149119Y0120898D01*
X0149119Y0129906D01*
X0334119Y0103906D02*
X0344119Y0113906D01*
X0344119Y0122795D01*
X0343709Y0120205D01*
X0367032Y0174417D02*
X0364032Y0192992D01*
X0362119Y0203906D01*
D24*
X0319119Y0163906D02*
X0309119Y0173906D01*
X0309119Y0177906D01*
X0290519Y0181306D02*
X0329119Y0140906D01*
X0336119Y0138906D02*
X0336119Y0135614D01*
X0325264Y0124760D01*
X0323709Y0120205D01*
X0353709Y0120205D02*
X0353709Y0144315D01*
X0345119Y0152906D01*
X0326119Y0152906D01*
X0291119Y0187906D01*
X0274119Y0187906D01*
X0266119Y0195906D01*
X0259119Y0196906D02*
X0259119Y0199906D01*
X0259119Y0196906D02*
X0271119Y0184906D01*
X0290119Y0184906D01*
X0336119Y0138906D01*
X0357119Y0146906D02*
X0368119Y0146906D01*
X0376119Y0138906D01*
X0376119Y0115614D01*
X0353709Y0090205D01*
X0354434Y0069961D02*
X0341457Y0069961D01*
X0341079Y0069583D01*
X0344107Y0057906D02*
X0326119Y0057906D01*
X0318119Y0051906D01*
X0318119Y0049906D01*
X0325119Y0039906D02*
X0306119Y0039906D01*
X0305119Y0038906D01*
X0305119Y0027906D01*
X0325119Y0039906D02*
X0333119Y0047906D01*
X0344119Y0047906D01*
X0367201Y0019823D01*
X0369201Y0017811D01*
X0370201Y0027811D02*
X0344107Y0057906D01*
X0321079Y0069583D02*
X0320056Y0068559D01*
X0309402Y0068559D01*
X0281119Y0054906D02*
X0281119Y0046906D01*
X0280119Y0045906D01*
X0274615Y0052409D02*
X0262119Y0064906D01*
X0262119Y0091614D01*
X0263709Y0090205D01*
X0273709Y0090205D02*
X0273709Y0073496D01*
X0268119Y0067906D01*
X0281119Y0054906D01*
X0274615Y0052409D02*
X0274615Y0032339D01*
X0266119Y0030906D02*
X0266048Y0030906D01*
X0264615Y0032339D01*
X0266119Y0030906D02*
X0253119Y0043906D01*
X0239119Y0043906D01*
X0247119Y0061906D02*
X0200119Y0061906D01*
X0200119Y0065906D01*
X0223280Y0076732D02*
X0236016Y0076732D01*
X0241599Y0071150D01*
X0241599Y0074425D01*
X0234119Y0081906D01*
X0234119Y0089795D01*
X0233709Y0090205D01*
X0252623Y0071150D02*
X0252623Y0067409D01*
X0247119Y0061906D01*
X0177119Y0095906D02*
X0172119Y0090906D01*
X0131119Y0090906D01*
X0118119Y0103906D01*
X0168071Y0120441D02*
X0173536Y0129906D01*
X0193119Y0129906D01*
X0211119Y0111906D01*
X0288119Y0111906D01*
X0283119Y0132906D02*
X0261119Y0154906D01*
X0260119Y0154906D01*
X0259119Y0155906D01*
X0148772Y0155906D01*
X0141583Y0148717D01*
X0161583Y0148717D02*
X0161583Y0147441D01*
X0175119Y0132906D01*
X0214119Y0132906D01*
X0206520Y0135906D02*
X0207134Y0144520D01*
X0206520Y0135906D02*
X0176119Y0135906D01*
X0171583Y0141441D01*
X0171583Y0148717D01*
X0218158Y0144520D02*
X0220221Y0145008D01*
X0226119Y0144906D01*
X0255119Y0144906D01*
X0259119Y0140906D01*
X0259119Y0138906D01*
X0265119Y0134906D02*
X0245410Y0134906D01*
X0233709Y0120205D01*
X0177119Y0106906D02*
X0177119Y0095906D01*
X0319119Y0163906D02*
X0340119Y0163906D01*
X0357119Y0146906D01*
X0340119Y0158906D02*
X0328119Y0158906D01*
X0290519Y0181306D02*
X0270519Y0181706D01*
X0260119Y0190906D01*
X0325119Y0039906D02*
X0325394Y0039906D01*
X0330040Y0032260D01*
D25*
X0305119Y0027906D03*
X0280119Y0045906D03*
X0318119Y0049906D03*
X0239119Y0043906D03*
X0200119Y0065906D03*
X0196119Y0085906D03*
X0198119Y0091906D03*
X0177119Y0106906D03*
X0167119Y0108906D03*
X0160119Y0111906D03*
X0170119Y0095906D03*
X0198119Y0112906D03*
X0189119Y0124906D03*
X0214119Y0132906D03*
X0259119Y0138906D03*
X0265119Y0134906D03*
X0283119Y0132906D03*
X0314119Y0149906D03*
X0328119Y0158906D03*
X0340119Y0158906D03*
X0329119Y0140906D03*
X0288119Y0111906D03*
X0279119Y0107906D03*
X0285119Y0099906D03*
X0296119Y0103906D03*
X0313119Y0099906D03*
X0334119Y0103906D03*
X0309119Y0177906D03*
X0266119Y0195906D03*
X0260119Y0190906D03*
X0260119Y0181906D03*
X0235119Y0197906D03*
X0259119Y0199906D03*
X0262119Y0208906D03*
X0362119Y0203906D03*
X0159119Y0134906D03*
X0149119Y0129906D03*
X0138119Y0131906D03*
X0132119Y0126906D03*
X0102119Y0130906D03*
X0118119Y0103906D03*
M02*
