G75*
%MOIN*%
%OFA0B0*%
%FSLAX25Y25*%
%IPPOS*%
%LPD*%
%AMOC8*
5,1,8,0,0,1.08239X$1,22.5*
%
%ADD10C,0.00800*%
%ADD11C,0.01600*%
D10*
X0205780Y0059669D02*
X0205780Y0071795D01*
X0210780Y0075732D02*
X0220662Y0075732D01*
X0225780Y0071795D02*
X0225780Y0059669D01*
X0220662Y0055732D02*
X0210898Y0055732D01*
X0210780Y0065732D02*
X0210782Y0065873D01*
X0210788Y0066014D01*
X0210798Y0066154D01*
X0210812Y0066294D01*
X0210830Y0066434D01*
X0210851Y0066573D01*
X0210877Y0066712D01*
X0210906Y0066850D01*
X0210940Y0066986D01*
X0210977Y0067122D01*
X0211018Y0067257D01*
X0211063Y0067391D01*
X0211112Y0067523D01*
X0211164Y0067654D01*
X0211220Y0067783D01*
X0211280Y0067910D01*
X0211343Y0068036D01*
X0211409Y0068160D01*
X0211480Y0068283D01*
X0211553Y0068403D01*
X0211630Y0068521D01*
X0211710Y0068637D01*
X0211794Y0068750D01*
X0211880Y0068861D01*
X0211970Y0068970D01*
X0212063Y0069076D01*
X0212158Y0069179D01*
X0212257Y0069280D01*
X0212358Y0069378D01*
X0212462Y0069473D01*
X0212569Y0069565D01*
X0212678Y0069654D01*
X0212790Y0069739D01*
X0212904Y0069822D01*
X0213020Y0069902D01*
X0213139Y0069978D01*
X0213260Y0070050D01*
X0213382Y0070120D01*
X0213507Y0070185D01*
X0213633Y0070248D01*
X0213761Y0070306D01*
X0213891Y0070361D01*
X0214022Y0070413D01*
X0214155Y0070460D01*
X0214289Y0070504D01*
X0214424Y0070545D01*
X0214560Y0070581D01*
X0214697Y0070613D01*
X0214835Y0070642D01*
X0214973Y0070667D01*
X0215113Y0070687D01*
X0215253Y0070704D01*
X0215393Y0070717D01*
X0215534Y0070726D01*
X0215674Y0070731D01*
X0215815Y0070732D01*
X0215956Y0070729D01*
X0216097Y0070722D01*
X0216237Y0070711D01*
X0216377Y0070696D01*
X0216517Y0070677D01*
X0216656Y0070655D01*
X0216794Y0070628D01*
X0216932Y0070598D01*
X0217068Y0070563D01*
X0217204Y0070525D01*
X0217338Y0070483D01*
X0217472Y0070437D01*
X0217604Y0070388D01*
X0217734Y0070334D01*
X0217863Y0070277D01*
X0217990Y0070217D01*
X0218116Y0070153D01*
X0218239Y0070085D01*
X0218361Y0070014D01*
X0218481Y0069940D01*
X0218598Y0069862D01*
X0218713Y0069781D01*
X0218826Y0069697D01*
X0218937Y0069610D01*
X0219045Y0069519D01*
X0219150Y0069426D01*
X0219253Y0069329D01*
X0219353Y0069230D01*
X0219450Y0069128D01*
X0219544Y0069023D01*
X0219635Y0068916D01*
X0219723Y0068806D01*
X0219808Y0068694D01*
X0219890Y0068579D01*
X0219969Y0068462D01*
X0220044Y0068343D01*
X0220116Y0068222D01*
X0220184Y0068099D01*
X0220249Y0067974D01*
X0220311Y0067847D01*
X0220368Y0067718D01*
X0220423Y0067588D01*
X0220473Y0067457D01*
X0220520Y0067324D01*
X0220563Y0067190D01*
X0220602Y0067054D01*
X0220637Y0066918D01*
X0220669Y0066781D01*
X0220696Y0066643D01*
X0220720Y0066504D01*
X0220740Y0066364D01*
X0220756Y0066224D01*
X0220768Y0066084D01*
X0220776Y0065943D01*
X0220780Y0065802D01*
X0220780Y0065662D01*
X0220776Y0065521D01*
X0220768Y0065380D01*
X0220756Y0065240D01*
X0220740Y0065100D01*
X0220720Y0064960D01*
X0220696Y0064821D01*
X0220669Y0064683D01*
X0220637Y0064546D01*
X0220602Y0064410D01*
X0220563Y0064274D01*
X0220520Y0064140D01*
X0220473Y0064007D01*
X0220423Y0063876D01*
X0220368Y0063746D01*
X0220311Y0063617D01*
X0220249Y0063490D01*
X0220184Y0063365D01*
X0220116Y0063242D01*
X0220044Y0063121D01*
X0219969Y0063002D01*
X0219890Y0062885D01*
X0219808Y0062770D01*
X0219723Y0062658D01*
X0219635Y0062548D01*
X0219544Y0062441D01*
X0219450Y0062336D01*
X0219353Y0062234D01*
X0219253Y0062135D01*
X0219150Y0062038D01*
X0219045Y0061945D01*
X0218937Y0061854D01*
X0218826Y0061767D01*
X0218713Y0061683D01*
X0218598Y0061602D01*
X0218481Y0061524D01*
X0218361Y0061450D01*
X0218239Y0061379D01*
X0218116Y0061311D01*
X0217990Y0061247D01*
X0217863Y0061187D01*
X0217734Y0061130D01*
X0217604Y0061076D01*
X0217472Y0061027D01*
X0217338Y0060981D01*
X0217204Y0060939D01*
X0217068Y0060901D01*
X0216932Y0060866D01*
X0216794Y0060836D01*
X0216656Y0060809D01*
X0216517Y0060787D01*
X0216377Y0060768D01*
X0216237Y0060753D01*
X0216097Y0060742D01*
X0215956Y0060735D01*
X0215815Y0060732D01*
X0215674Y0060733D01*
X0215534Y0060738D01*
X0215393Y0060747D01*
X0215253Y0060760D01*
X0215113Y0060777D01*
X0214973Y0060797D01*
X0214835Y0060822D01*
X0214697Y0060851D01*
X0214560Y0060883D01*
X0214424Y0060919D01*
X0214289Y0060960D01*
X0214155Y0061004D01*
X0214022Y0061051D01*
X0213891Y0061103D01*
X0213761Y0061158D01*
X0213633Y0061216D01*
X0213507Y0061279D01*
X0213382Y0061344D01*
X0213260Y0061414D01*
X0213139Y0061486D01*
X0213020Y0061562D01*
X0212904Y0061642D01*
X0212790Y0061725D01*
X0212678Y0061810D01*
X0212569Y0061899D01*
X0212462Y0061991D01*
X0212358Y0062086D01*
X0212257Y0062184D01*
X0212158Y0062285D01*
X0212063Y0062388D01*
X0211970Y0062494D01*
X0211880Y0062603D01*
X0211794Y0062714D01*
X0211710Y0062827D01*
X0211630Y0062943D01*
X0211553Y0063061D01*
X0211480Y0063181D01*
X0211409Y0063304D01*
X0211343Y0063428D01*
X0211280Y0063554D01*
X0211220Y0063681D01*
X0211164Y0063810D01*
X0211112Y0063941D01*
X0211063Y0064073D01*
X0211018Y0064207D01*
X0210977Y0064342D01*
X0210940Y0064478D01*
X0210906Y0064614D01*
X0210877Y0064752D01*
X0210851Y0064891D01*
X0210830Y0065030D01*
X0210812Y0065170D01*
X0210798Y0065310D01*
X0210788Y0065450D01*
X0210782Y0065591D01*
X0210780Y0065732D01*
X0194083Y0143717D02*
X0189083Y0143717D01*
X0186583Y0146217D01*
X0184083Y0143717D01*
X0179083Y0143717D01*
X0176583Y0146217D01*
X0174083Y0143717D01*
X0169083Y0143717D01*
X0166583Y0146217D01*
X0164083Y0143717D01*
X0159083Y0143717D01*
X0156583Y0146217D01*
X0154083Y0143717D01*
X0149083Y0143717D01*
X0146583Y0146217D01*
X0144083Y0143717D01*
X0139083Y0143717D01*
X0136583Y0146217D01*
X0134083Y0143717D01*
X0129083Y0143717D01*
X0126583Y0146217D01*
X0124083Y0143717D01*
X0119083Y0143717D01*
X0116583Y0146217D01*
X0116583Y0151217D01*
X0119083Y0153717D01*
X0124083Y0153717D01*
X0126583Y0151217D01*
X0129083Y0153717D01*
X0134083Y0153717D01*
X0136583Y0151217D01*
X0139083Y0153717D01*
X0144083Y0153717D01*
X0146583Y0151217D01*
X0149083Y0153717D01*
X0154083Y0153717D01*
X0156583Y0151217D01*
X0159083Y0153717D01*
X0164083Y0153717D01*
X0166583Y0151217D01*
X0169083Y0153717D01*
X0174083Y0153717D01*
X0176583Y0151217D01*
X0179083Y0153717D01*
X0184083Y0153717D01*
X0186583Y0151217D01*
X0189083Y0153717D01*
X0194083Y0153717D01*
X0196583Y0151217D01*
X0196583Y0146217D01*
X0194083Y0143717D01*
X0146871Y0180673D02*
X0146871Y0218193D01*
X0109351Y0218193D01*
X0109351Y0180673D01*
X0112363Y0180673D01*
X0112363Y0182248D01*
X0143859Y0182248D01*
X0143859Y0180673D01*
X0146871Y0180673D01*
X0278882Y0189378D02*
X0278882Y0159457D01*
X0278883Y0189378D02*
X0279262Y0190377D01*
X0279665Y0191366D01*
X0280092Y0192345D01*
X0280543Y0193313D01*
X0281017Y0194270D01*
X0281514Y0195216D01*
X0282035Y0196148D01*
X0282578Y0197068D01*
X0283143Y0197974D01*
X0283731Y0198867D01*
X0284340Y0199744D01*
X0284970Y0200607D01*
X0285621Y0201453D01*
X0286292Y0202284D01*
X0286984Y0203098D01*
X0287695Y0203895D01*
X0288426Y0204674D01*
X0289175Y0205435D01*
X0289943Y0206178D01*
X0290728Y0206902D01*
X0291531Y0207606D01*
X0292351Y0208291D01*
X0293188Y0208955D01*
X0294040Y0209599D01*
X0294908Y0210222D01*
X0295790Y0210823D01*
X0296688Y0211403D01*
X0297599Y0211960D01*
X0298523Y0212496D01*
X0299460Y0213008D01*
X0300410Y0213497D01*
X0301371Y0213964D01*
X0302343Y0214406D01*
X0303326Y0214825D01*
X0304318Y0215219D01*
X0305320Y0215590D01*
X0306331Y0215935D01*
X0307350Y0216256D01*
X0308376Y0216552D01*
X0309409Y0216823D01*
X0310449Y0217068D01*
X0311494Y0217288D01*
X0312544Y0217483D01*
X0313599Y0217652D01*
X0314657Y0217794D01*
X0315719Y0217912D01*
X0316783Y0218003D01*
X0317850Y0218068D01*
X0318917Y0218107D01*
X0319985Y0218120D01*
X0321053Y0218107D01*
X0322120Y0218068D01*
X0323187Y0218003D01*
X0324251Y0217912D01*
X0325313Y0217794D01*
X0326371Y0217652D01*
X0327426Y0217483D01*
X0328476Y0217288D01*
X0329521Y0217068D01*
X0330561Y0216823D01*
X0331594Y0216552D01*
X0332620Y0216256D01*
X0333639Y0215935D01*
X0334650Y0215590D01*
X0335652Y0215219D01*
X0336644Y0214825D01*
X0337627Y0214406D01*
X0338599Y0213964D01*
X0339560Y0213497D01*
X0340510Y0213008D01*
X0341447Y0212496D01*
X0342371Y0211960D01*
X0343282Y0211403D01*
X0344180Y0210823D01*
X0345062Y0210222D01*
X0345930Y0209599D01*
X0346782Y0208955D01*
X0347619Y0208291D01*
X0348439Y0207606D01*
X0349242Y0206902D01*
X0350027Y0206178D01*
X0350795Y0205435D01*
X0351544Y0204674D01*
X0352275Y0203895D01*
X0352986Y0203098D01*
X0353678Y0202284D01*
X0354349Y0201453D01*
X0355000Y0200607D01*
X0355630Y0199744D01*
X0356239Y0198867D01*
X0356827Y0197974D01*
X0357392Y0197068D01*
X0357935Y0196148D01*
X0358456Y0195216D01*
X0358953Y0194270D01*
X0359427Y0193313D01*
X0359878Y0192345D01*
X0360305Y0191366D01*
X0360708Y0190377D01*
X0361087Y0189378D01*
X0372819Y0189378D01*
X0372819Y0159457D01*
X0361087Y0159457D01*
X0360708Y0158458D01*
X0360305Y0157469D01*
X0359878Y0156490D01*
X0359427Y0155522D01*
X0358953Y0154565D01*
X0358456Y0153619D01*
X0357935Y0152687D01*
X0357392Y0151767D01*
X0356827Y0150861D01*
X0356239Y0149968D01*
X0355630Y0149091D01*
X0355000Y0148228D01*
X0354349Y0147382D01*
X0353678Y0146551D01*
X0352986Y0145737D01*
X0352275Y0144940D01*
X0351544Y0144161D01*
X0350795Y0143400D01*
X0350027Y0142657D01*
X0349242Y0141933D01*
X0348439Y0141229D01*
X0347619Y0140544D01*
X0346782Y0139880D01*
X0345930Y0139236D01*
X0345062Y0138613D01*
X0344180Y0138012D01*
X0343282Y0137432D01*
X0342371Y0136875D01*
X0341447Y0136339D01*
X0340510Y0135827D01*
X0339560Y0135338D01*
X0338599Y0134871D01*
X0337627Y0134429D01*
X0336644Y0134010D01*
X0335652Y0133616D01*
X0334650Y0133245D01*
X0333639Y0132900D01*
X0332620Y0132579D01*
X0331594Y0132283D01*
X0330561Y0132012D01*
X0329521Y0131767D01*
X0328476Y0131547D01*
X0327426Y0131352D01*
X0326371Y0131183D01*
X0325313Y0131041D01*
X0324251Y0130923D01*
X0323187Y0130832D01*
X0322120Y0130767D01*
X0321053Y0130728D01*
X0319985Y0130715D01*
X0318917Y0130728D01*
X0317850Y0130767D01*
X0316783Y0130832D01*
X0315719Y0130923D01*
X0314657Y0131041D01*
X0313599Y0131183D01*
X0312544Y0131352D01*
X0311494Y0131547D01*
X0310449Y0131767D01*
X0309409Y0132012D01*
X0308376Y0132283D01*
X0307350Y0132579D01*
X0306331Y0132900D01*
X0305320Y0133245D01*
X0304318Y0133616D01*
X0303326Y0134010D01*
X0302343Y0134429D01*
X0301371Y0134871D01*
X0300410Y0135338D01*
X0299460Y0135827D01*
X0298523Y0136339D01*
X0297599Y0136875D01*
X0296688Y0137432D01*
X0295790Y0138012D01*
X0294908Y0138613D01*
X0294040Y0139236D01*
X0293188Y0139880D01*
X0292351Y0140544D01*
X0291531Y0141229D01*
X0290728Y0141933D01*
X0289943Y0142657D01*
X0289175Y0143400D01*
X0288426Y0144161D01*
X0287695Y0144940D01*
X0286984Y0145737D01*
X0286292Y0146551D01*
X0285621Y0147382D01*
X0284970Y0148228D01*
X0284340Y0149091D01*
X0283731Y0149968D01*
X0283143Y0150861D01*
X0282578Y0151767D01*
X0282035Y0152687D01*
X0281514Y0153619D01*
X0281017Y0154565D01*
X0280543Y0155522D01*
X0280092Y0156490D01*
X0279665Y0157469D01*
X0279262Y0158458D01*
X0278883Y0159457D01*
X0367201Y0042811D02*
X0364701Y0040311D01*
X0364701Y0035311D01*
X0367201Y0032811D01*
X0364701Y0030311D01*
X0364701Y0025311D01*
X0367201Y0022811D01*
X0364701Y0020311D01*
X0364701Y0015311D01*
X0367201Y0012811D01*
X0372201Y0012811D01*
X0374701Y0015311D01*
X0374701Y0020311D01*
X0372201Y0022811D01*
X0374701Y0025311D01*
X0374701Y0030311D01*
X0372201Y0032811D01*
X0374701Y0035311D01*
X0374701Y0040311D01*
X0372201Y0042811D01*
X0367201Y0042811D01*
D11*
X0078701Y0045504D02*
X0078701Y0002331D01*
X0190906Y0002331D01*
X0190906Y0034504D01*
X0078701Y0061504D02*
X0078701Y0096504D01*
X0078701Y0112504D02*
X0078701Y0116504D01*
X0095378Y0116504D01*
X0186378Y0116504D02*
X0190906Y0116504D01*
X0190906Y0112504D01*
M02*
