G75*
%MOIN*%
%OFA0B0*%
%FSLAX25Y25*%
%IPPOS*%
%LPD*%
%AMOC8*
5,1,8,0,0,1.08239X$1,22.5*
%
%ADD10C,0.13398*%
%ADD11C,0.08477*%
%ADD12R,0.07887X0.07099*%
%ADD13R,0.07099X0.07887*%
%ADD14C,0.08200*%
%ADD15OC8,0.08200*%
%ADD16R,0.08200X0.08200*%
%ADD17R,0.03800X0.06800*%
%ADD18C,0.06000*%
%ADD19R,0.03950X0.08674*%
%ADD20R,0.08674X0.03950*%
%ADD21R,0.12611X0.12611*%
%ADD22C,0.06706*%
%ADD23C,0.07300*%
%ADD24OC8,0.03800*%
D10*
X0089772Y0167496D03*
X0385048Y0167496D03*
X0385048Y0045449D03*
D11*
X0367032Y0174417D03*
X0288292Y0174417D03*
D12*
X0309402Y0068559D03*
X0309402Y0057535D03*
D13*
X0354434Y0069961D03*
X0365457Y0069961D03*
X0252623Y0071150D03*
X0241599Y0071150D03*
X0218158Y0144520D03*
X0207134Y0144520D03*
D14*
X0191583Y0148717D03*
X0181583Y0148717D03*
X0171583Y0148717D03*
X0161583Y0148717D03*
X0151583Y0148717D03*
X0141583Y0148717D03*
X0131583Y0148717D03*
X0121583Y0148717D03*
X0121268Y0167496D03*
X0131268Y0167496D03*
X0141268Y0167496D03*
X0151268Y0167496D03*
X0161268Y0167496D03*
X0171268Y0167496D03*
X0181268Y0167496D03*
X0191268Y0167496D03*
X0201268Y0167496D03*
X0211268Y0167496D03*
X0221268Y0167496D03*
X0231268Y0167496D03*
X0241268Y0167496D03*
X0251268Y0167496D03*
X0261268Y0167496D03*
X0271268Y0167496D03*
X0128111Y0199374D03*
X0118111Y0199374D03*
X0369201Y0037811D03*
X0370201Y0027811D03*
X0369201Y0017811D03*
D15*
X0340040Y0022260D03*
X0330040Y0022260D03*
X0320040Y0022260D03*
X0320040Y0032260D03*
X0330040Y0032260D03*
X0340040Y0032260D03*
X0274615Y0032339D03*
X0264615Y0032339D03*
X0254615Y0032339D03*
X0244615Y0032339D03*
X0234615Y0032339D03*
X0234615Y0022339D03*
X0244615Y0022339D03*
X0254615Y0022339D03*
X0264615Y0022339D03*
X0274615Y0022339D03*
D16*
X0138111Y0199374D03*
D17*
X0208280Y0076732D03*
X0223280Y0076732D03*
X0223280Y0054732D03*
X0208280Y0054732D03*
D18*
X0233709Y0087605D02*
X0233709Y0092805D01*
X0243709Y0092805D02*
X0243709Y0087605D01*
X0253709Y0087605D02*
X0253709Y0092805D01*
X0263709Y0092805D02*
X0263709Y0087605D01*
X0273709Y0087605D02*
X0273709Y0092805D01*
X0283709Y0092805D02*
X0283709Y0087605D01*
X0293709Y0087605D02*
X0293709Y0092805D01*
X0303709Y0092805D02*
X0303709Y0087605D01*
X0313709Y0087605D02*
X0313709Y0092805D01*
X0323709Y0092805D02*
X0323709Y0087605D01*
X0333709Y0087605D02*
X0333709Y0092805D01*
X0343709Y0092805D02*
X0343709Y0087605D01*
X0353709Y0087605D02*
X0353709Y0092805D01*
X0363709Y0092805D02*
X0363709Y0087605D01*
X0363709Y0117605D02*
X0363709Y0122805D01*
X0353709Y0122805D02*
X0353709Y0117605D01*
X0343709Y0117605D02*
X0343709Y0122805D01*
X0333709Y0122805D02*
X0333709Y0117605D01*
X0323709Y0117605D02*
X0323709Y0122805D01*
X0313709Y0122805D02*
X0313709Y0117605D01*
X0303709Y0117605D02*
X0303709Y0122805D01*
X0293709Y0122805D02*
X0293709Y0117605D01*
X0283709Y0117605D02*
X0283709Y0122805D01*
X0273709Y0122805D02*
X0273709Y0117605D01*
X0263709Y0117605D02*
X0263709Y0122805D01*
X0253709Y0122805D02*
X0253709Y0117605D01*
X0243709Y0117605D02*
X0243709Y0122805D01*
X0233709Y0122805D02*
X0233709Y0117605D01*
D19*
X0182638Y0120441D03*
X0174764Y0120441D03*
X0168071Y0120441D03*
X0158504Y0120441D03*
X0148662Y0120441D03*
X0138819Y0120441D03*
X0132126Y0120441D03*
X0119134Y0120441D03*
X0109292Y0120441D03*
X0099449Y0120441D03*
D20*
X0192874Y0077331D03*
X0192874Y0037764D03*
D21*
X0073386Y0053512D03*
X0073386Y0104693D03*
X0194843Y0104693D03*
X0194843Y0053512D03*
D22*
X0184016Y0023984D03*
X0088741Y0023984D03*
D23*
X0321079Y0069583D03*
X0341079Y0069583D03*
D24*
X0318119Y0049906D03*
X0280119Y0045906D03*
X0305119Y0027906D03*
X0239119Y0043906D03*
X0200119Y0065906D03*
X0196119Y0085906D03*
X0198119Y0091906D03*
X0177119Y0106906D03*
X0167119Y0108906D03*
X0160119Y0111906D03*
X0170119Y0095906D03*
X0198119Y0112906D03*
X0189119Y0124906D03*
X0214119Y0132906D03*
X0259119Y0138906D03*
X0265119Y0134906D03*
X0283119Y0132906D03*
X0314119Y0149906D03*
X0328119Y0158906D03*
X0340119Y0158906D03*
X0329119Y0140906D03*
X0288119Y0111906D03*
X0279119Y0107906D03*
X0285119Y0099906D03*
X0296119Y0103906D03*
X0313119Y0099906D03*
X0334119Y0103906D03*
X0309119Y0177906D03*
X0266119Y0195906D03*
X0260119Y0190906D03*
X0260119Y0181906D03*
X0235119Y0197906D03*
X0259119Y0199906D03*
X0262119Y0208906D03*
X0362119Y0203906D03*
X0159119Y0134906D03*
X0149119Y0129906D03*
X0138119Y0131906D03*
X0132119Y0126906D03*
X0102119Y0130906D03*
X0118119Y0103906D03*
M02*
